<svg width="100" height="100" viewBox="0 0 100 100" fill="none" xmlns="http://www.w3.org/2000/svg">
<path d="M50.8125 27.1086V10.2904H54.8125V27.1086C54.8125 29.1036 54.814 30.4807 54.9005 31.5499C54.9329 31.95 54.9757 32.2812 55.0281 32.5613C55.1129 33.0137 55.2228 33.3329 55.3543 33.5937C55.8303 34.5374 56.5882 35.3012 57.5155 35.7786C57.927 35.9903 58.4891 36.1469 59.5205 36.232C60.5759 36.3191 61.9364 36.3207 63.9125 36.3207H80.5625V40.3207H63.8277H63.8276C61.957 40.3207 60.4309 40.3208 59.1915 40.2185C57.9093 40.1126 56.7578 39.8872 55.685 39.3352C54.0021 38.4689 52.6371 37.0886 51.783 35.3952C51.2399 34.3186 51.0179 33.163 50.9135 31.8724C50.8125 30.6229 50.8125 29.0835 50.8125 27.1922V27.1922V27.1086Z" fill="#F8981D"/>
<path fill-rule="evenodd" clip-rule="evenodd" d="M28 12C24.6863 12 22 14.6863 22 18V82C22 85.3137 24.6863 88 28 88H72C75.3137 88 78 85.3137 78 82V36.7634C78 35.1945 77.3854 33.6879 76.288 32.5667L57.9238 13.8032C56.7951 12.65 55.2495 12 53.6358 12H28ZM18 18C18 12.4772 22.4772 8 28 8H53.6358C56.3252 8 58.9013 9.08331 60.7825 11.0054L79.1467 29.7688C80.9757 31.6376 82 34.1485 82 36.7634V82C82 87.5229 77.5228 92 72 92H28C22.4772 92 18 87.5229 18 82V18Z" fill="#F8981D"/>
<path d="M66.3146 46.6942C66.5319 46.9137 66.7043 47.1744 66.8219 47.4615C66.9395 47.7485 67 48.0563 67 48.3671C67 48.6779 66.9395 48.9856 66.8219 49.2727C66.7043 49.5598 66.5319 49.8205 66.3146 50.04L45.3189 71.3058C45.1022 71.5259 44.8448 71.7004 44.5614 71.8196C44.2779 71.9387 43.9741 72 43.6672 72C43.3604 72 43.0566 71.9387 42.7731 71.8196C42.4897 71.7004 42.2323 71.5259 42.0156 71.3058L32.6841 61.8543C32.2461 61.4107 32 60.8089 32 60.1814C32 59.554 32.2461 58.9522 32.6841 58.5085C33.1222 58.0648 33.7163 57.8156 34.3358 57.8156C34.9553 57.8156 35.5494 58.0648 35.9875 58.5085L43.6672 66.2918L63.0113 46.6942C63.228 46.4741 63.4854 46.2996 63.7689 46.1804C64.0523 46.0613 64.3561 46 64.663 46C64.9698 46 65.2737 46.0613 65.5571 46.1804C65.8405 46.2996 66.0979 46.4741 66.3146 46.6942Z" fill="#BB171B"/>
</svg>
