<svg width="100" height="100" viewBox="0 0 100 100" fill="none" xmlns="http://www.w3.org/2000/svg">
<path d="M88.6996 45.6692L86.369 36.3467C87.0062 36.2113 87.4843 35.646 87.4843 34.9687V33.4656C87.4843 30.2021 84.8291 27.5471 81.5657 27.5471H70.95V24.4466C70.95 22.8407 69.6436 21.5343 68.0376 21.5343H13.9248C12.3188 21.5343 11.0124 22.8407 11.0124 24.4466V50C11.0124 50.7782 11.6433 51.4092 12.4217 51.4092C13.1998 51.4092 13.8309 50.7783 13.8309 50V24.4466C13.8309 24.395 13.8729 24.3528 13.9248 24.3528H68.0374C68.0893 24.3528 68.1313 24.3951 68.1313 24.4466V50.0003C68.1313 50.7785 68.7622 51.4096 69.5405 51.4096C70.3187 51.4096 70.9498 50.7787 70.9498 50.0003V48.4028H87.5732C87.5746 48.4028 87.5757 48.4032 87.5769 48.4032C87.5783 48.4032 87.5796 48.403 87.5808 48.403C89.6264 48.4044 91.3633 49.747 91.9599 51.5971H87.578C86.7998 51.5971 86.1687 52.228 86.1687 53.0064V56.0126C86.1687 58.4473 88.1494 60.428 90.5842 60.428H92.1813V66.6283H88.4966C87.2862 63.1331 83.9637 60.6157 80.0623 60.6157C76.1608 60.6157 72.8382 63.1331 71.6279 66.6283H70.9494V56.0124C70.9494 55.2342 70.3186 54.6032 69.5402 54.6032C68.762 54.6032 68.131 55.234 68.131 56.0124V66.628H38.8936C37.6832 63.1328 34.3607 60.6154 30.4593 60.6154C26.5578 60.6154 23.2352 63.1328 22.0249 66.628H13.9248C13.8729 66.628 13.8309 66.5856 13.8309 66.5341V63.4339H19.9374C20.7155 63.4339 21.3466 62.803 21.3466 62.0246C21.3466 61.2463 20.7157 60.6154 19.9374 60.6154H12.4227C12.4224 60.6154 12.4222 60.6154 12.4218 60.6154C12.4215 60.6154 12.4213 60.6154 12.421 60.6154H6.40924C5.63105 60.6154 5 61.2463 5 62.0246C5 62.803 5.63088 63.4339 6.40924 63.4339H11.0126V66.5341C11.0126 68.1401 12.319 69.4465 13.9249 69.4465H21.537C21.5366 69.4778 21.5345 69.5091 21.5345 69.5403C21.5345 74.4613 25.5383 78.4651 30.4593 78.4651C35.3803 78.4651 39.384 74.4613 39.384 69.5403C39.384 69.5091 39.3819 69.4778 39.3816 69.4465H71.14C71.1396 69.4778 71.1375 69.5091 71.1375 69.5403C71.1375 74.4613 75.1413 78.4651 80.0623 78.4651C84.9833 78.4651 88.987 74.4613 88.987 69.5403C88.987 69.5091 88.9849 69.4778 88.9846 69.4465H93.5906C94.3688 69.4465 94.9998 68.8156 94.9998 68.0372V53.006C95 49.2949 92.2618 46.2115 88.6996 45.6692ZM70.95 30.3654H81.5657C83.2752 30.3654 84.666 31.7562 84.666 33.4656V33.5595H70.95V30.3654ZM70.95 45.5845V36.3778H83.4717L85.7734 45.5845H70.95ZM30.4593 75.6472C27.0922 75.6472 24.3528 72.908 24.3528 69.5407C24.3528 66.1734 27.0922 63.4342 30.4593 63.4342C33.8264 63.4342 36.5657 66.1734 36.5657 69.5407C36.5657 72.908 33.8264 75.6472 30.4593 75.6472ZM80.0626 75.6472C76.6955 75.6472 73.9562 72.908 73.9562 69.5407C73.9562 66.1734 76.6955 63.4342 80.0626 63.4342C83.4297 63.4342 86.1691 66.1734 86.1691 69.5407C86.1691 72.908 83.4297 75.6472 80.0626 75.6472ZM92.1817 57.6095H90.5845C89.7039 57.6095 88.9874 56.8931 88.9874 56.0124V54.4152H92.1815V57.6095H92.1817Z" fill="#F8981D"/>
<path d="M30.4592 66.6284C28.8533 66.6284 27.5469 67.9348 27.5469 69.5408C27.5469 71.1467 28.8533 72.4531 30.4592 72.4531C32.0652 72.4531 33.3716 71.1467 33.3716 69.5408C33.3716 67.9348 32.0652 66.6284 30.4592 66.6284Z" fill="#F8981D"/>
<path d="M80.0627 66.6284C78.4568 66.6284 77.1504 67.9348 77.1504 69.5408C77.1504 71.1467 78.4568 72.4531 80.0627 72.4531C81.6687 72.4531 82.9751 71.1467 82.9751 69.5408C82.9751 67.9348 81.6687 66.6284 80.0627 66.6284Z" fill="#F8981D"/>
<path d="M63.5273 60.616H42.4835C41.7053 60.616 41.0742 61.2468 41.0742 62.0252C41.0742 62.8036 41.7051 63.4344 42.4835 63.4344H63.5273C64.3055 63.4344 64.9365 62.8036 64.9365 62.0252C64.9365 61.2468 64.3056 60.616 63.5273 60.616Z" fill="#BB171B"/>
<path d="M27.4527 54.6034H9.4151C8.63691 54.6034 8.00586 55.2343 8.00586 56.0126C8.00586 56.791 8.63674 57.4219 9.4151 57.4219H27.4527C28.2309 57.4219 28.862 56.791 28.862 56.0126C28.862 55.2343 28.2309 54.6034 27.4527 54.6034Z" fill="#BB171B"/>
<path d="M40.9811 29.05C33.5735 29.05 27.5469 35.0767 27.5469 42.4843C27.5469 49.8919 33.5735 55.9186 40.9811 55.9186C48.3887 55.9186 54.4154 49.8919 54.4154 42.4843C54.4154 35.0767 48.3887 29.05 40.9811 29.05ZM40.9811 53.1003C35.1276 53.1003 30.3654 48.338 30.3654 42.4845C30.3654 36.631 35.1276 31.8687 40.9811 31.8687C46.8346 31.8687 51.5969 36.631 51.5969 42.4845C51.5969 48.338 46.8346 53.1003 40.9811 53.1003Z" fill="#BB171B"/>
<path d="M46.4873 45.9973L42.3907 41.9007V36.4719C42.3907 35.6937 41.7599 35.0626 40.9815 35.0626C40.2031 35.0626 39.5723 35.6935 39.5723 36.4719V42.4845C39.5723 42.8582 39.7206 43.2164 39.985 43.4808L44.4943 47.9901C44.7694 48.2652 45.1301 48.4028 45.4906 48.4028C45.8512 48.4028 46.2121 48.2654 46.487 47.9901C47.0377 47.4397 47.0377 46.5476 46.4873 45.9973Z" fill="#BB171B"/>
</svg>
