<svg width="100" height="100" viewBox="0 0 100 100" fill="none" xmlns="http://www.w3.org/2000/svg">
<path d="M63.1247 32.1406C63.0207 31.8285 62.8216 31.5568 62.5555 31.3634C62.2893 31.1701 61.9693 31.0649 61.6403 31.0625H53.8747L51.4841 23.6875C51.3813 23.3749 51.1825 23.1027 50.9159 22.9098C50.6494 22.7168 50.3287 22.6129 49.9997 22.6129C49.6706 22.6129 49.35 22.7168 49.0834 22.9098C48.8169 23.1027 48.6181 23.3749 48.5153 23.6875L46.1247 31.0625H38.3591C38.0301 31.0649 37.7101 31.1701 37.4439 31.3634C37.1777 31.5568 36.9787 31.8285 36.8747 32.1406C36.7708 32.4558 36.7709 32.796 36.875 33.111C36.9791 33.4261 37.1817 33.6994 37.4528 33.8907L43.7184 38.4532L41.3278 45.8281C41.2246 46.1419 41.2234 46.4802 41.3245 46.7946C41.4256 47.109 41.6236 47.3833 41.8903 47.5782C42.1599 47.7688 42.482 47.8711 42.8122 47.8711C43.1424 47.8711 43.4644 47.7688 43.7341 47.5782L49.9997 43.0157L56.2653 47.5782C56.5372 47.7646 56.8576 47.8677 57.1872 47.875C57.5176 47.8725 57.8393 47.7689 58.1091 47.5782C58.3757 47.3833 58.5738 47.109 58.6749 46.7946C58.7759 46.4802 58.7748 46.1419 58.6716 45.8281L56.2809 38.4532L62.5466 33.8907C62.8177 33.6994 63.0202 33.4261 63.1243 33.111C63.2284 32.796 63.2285 32.4558 63.1247 32.1406ZM53.5309 36.5938C53.2626 36.7875 53.0623 37.0609 52.9585 37.3752C52.8547 37.6894 52.8527 38.0284 52.9528 38.3438L54.2184 42.2188L50.9216 39.8125C50.6529 39.6195 50.3305 39.5156 49.9997 39.5156C49.6689 39.5156 49.3464 39.6195 49.0778 39.8125L45.7809 42.2188L47.0466 38.3438C47.1467 38.0284 47.1447 37.6894 47.0409 37.3752C46.9371 37.0609 46.7367 36.7875 46.4684 36.5938L43.1716 34.1875H47.2497C47.5797 34.1895 47.9017 34.0859 48.1687 33.892C48.4357 33.698 48.6338 33.4238 48.7341 33.1094L49.9997 29.2344L51.2653 33.1094C51.3655 33.4238 51.5636 33.698 51.8306 33.892C52.0977 34.0859 52.4197 34.1895 52.7497 34.1875H56.8278L53.5309 36.5938Z" fill="#BB171B"/>
<path d="M50.0003 16.0313C44.666 16.0298 39.5374 18.089 35.6853 21.7789C31.8331 25.4688 29.5553 30.5042 29.3275 35.8336C29.0996 41.163 30.9393 46.3744 34.4625 50.3796C37.9856 54.3849 42.9197 56.8743 48.2347 57.3281C48.8284 57.375 49.4065 57.4063 50.0003 57.4063C50.5315 57.4063 51.0784 57.375 51.6097 57.3281H51.7659V57.3125C57.0788 56.8588 62.0111 54.3702 65.5328 50.3664C69.0545 46.3626 70.8934 41.1531 70.6656 35.8258C70.4377 30.4984 68.1607 25.465 64.31 21.7765C60.4593 18.088 55.3325 16.0297 50.0003 16.0313ZM65.3284 45.2812C65.3243 45.2812 65.3203 45.2829 65.3174 45.2858C65.3144 45.2888 65.3128 45.2927 65.3128 45.2969C63.9151 47.8017 61.9228 49.9242 59.5113 51.4774C57.0998 53.0306 54.3433 53.9666 51.4847 54.2031L51.469 54.2188H51.4534C50.4763 54.315 49.4919 54.3097 48.5159 54.2031C44.7389 53.8813 41.1675 52.3456 38.3357 49.8257C35.5038 47.3057 33.5637 43.9369 32.8053 40.2229C32.0468 36.5088 32.5109 32.6491 34.128 29.2206C35.7451 25.7922 38.4285 22.9792 41.7769 21.2023C45.1254 19.4254 48.959 18.78 52.7046 19.3626C56.4503 19.9452 59.9068 21.7244 62.5574 24.4343C65.2079 27.1443 66.9102 30.6393 67.4097 34.397C67.9092 38.1546 67.179 41.973 65.3284 45.2812Z" fill="#BB171B"/>
<path d="M92 82.3907L86.125 73.2813C81.9218 66.7969 77.7239 60.3021 73.5312 53.7969C73.8594 53.6719 74.2343 53.5313 74.6093 53.4063C75.4562 53.2367 76.2609 52.9008 76.9771 52.418C77.6932 51.9352 78.3064 51.3152 78.7812 50.5938C79.0467 49.7781 79.1489 48.918 79.0819 48.0627C79.0148 47.2075 78.7799 46.3738 78.3906 45.6094C78.0233 44.8098 77.8264 43.9424 77.8125 43.0625C78.1995 42.3105 78.7366 41.6458 79.3906 41.1094C80.0861 40.5827 80.6706 39.9236 81.1104 39.1701C81.5502 38.4165 81.8366 37.5835 81.9531 36.7188C81.8383 35.8558 81.5526 35.0244 81.1126 34.2732C80.6726 33.5219 80.0872 32.866 79.3906 32.3438C78.739 31.7989 78.2025 31.1296 77.8125 30.375C77.8264 29.4952 78.0233 28.6278 78.3906 27.8282C78.7796 27.0665 79.0144 26.2354 79.0815 25.3828C79.1485 24.5301 79.0465 23.6726 78.7812 22.8594C78.305 22.1392 77.6914 21.5201 76.9755 21.0375C76.2596 20.5549 75.4556 20.2182 74.6093 20.0469C73.7678 19.8341 72.9766 19.457 72.2812 18.9375C71.9354 18.1424 71.7445 17.2886 71.7187 16.4219C71.7423 15.5608 71.5956 14.7035 71.2873 13.8991C70.979 13.0948 70.515 12.3592 69.9218 11.7344C68.4284 10.8552 66.6478 10.6025 64.9687 11.0313C64.1183 11.2068 63.241 11.2068 62.3906 11.0313C61.7361 10.483 61.1993 9.80804 60.8125 9.04692C60.4571 8.24957 59.9468 7.53086 59.311 6.93266C58.6752 6.33446 57.9268 5.86872 57.1093 5.56255C56.2628 5.48977 55.4102 5.5848 54.6005 5.84221C53.7907 6.09961 53.0397 6.51432 52.3906 7.06255C51.6809 7.60347 50.8669 7.9918 50 8.20317C49.133 7.9918 48.3191 7.60347 47.6093 7.06255C46.9626 6.51552 46.2142 6.10146 45.4072 5.84406C44.6002 5.58667 43.7503 5.491 42.9062 5.56255C42.0853 5.86602 41.3335 6.33063 40.6948 6.92902C40.0562 7.52742 39.5437 8.24751 39.1875 9.04692C38.8 9.80331 38.2694 10.4772 37.625 11.0313C36.7693 11.2066 35.8869 11.2066 35.0312 11.0313C33.3572 10.6023 31.5814 10.8552 30.0937 11.7344C29.494 12.3584 29.0248 13.0958 28.7135 13.9033C28.4023 14.7109 28.2553 15.5725 28.2812 16.4375C28.2653 17.3021 28.0683 18.1538 27.7031 18.9375C27.0219 19.4579 26.2396 19.8304 25.4062 20.0313C23.6932 20.3777 22.1873 21.3891 21.2187 22.8438C20.9532 23.6595 20.8511 24.5196 20.9181 25.3749C20.9851 26.2301 21.22 27.0637 21.6093 27.8282C21.9766 28.6278 22.1735 29.4952 22.1875 30.375C21.7975 31.1296 21.261 31.7989 20.6093 32.3438C19.9128 32.866 19.3274 33.5219 18.8874 34.2732C18.4474 35.0244 18.1616 35.8558 18.0468 36.7188C18.1634 37.5835 18.4497 38.4165 18.8895 39.1701C19.3293 39.9236 19.9138 40.5827 20.6093 41.1094C21.2633 41.6458 21.8004 42.3105 22.1875 43.0625C22.1735 43.9424 21.9766 44.8098 21.6093 45.6094C21.2203 46.3711 20.9855 47.2022 20.9185 48.0548C20.8514 48.9075 20.9535 49.765 21.2187 50.5782C21.6911 51.3017 22.3036 51.9234 23.0202 52.4064C23.7367 52.8895 24.5427 53.2241 25.3906 53.3907C25.75 53.5313 26.125 53.6563 26.4687 53.7969C22.2656 60.2969 18.0677 66.7917 13.875 73.2813L7.99997 82.3907C7.83051 82.6459 7.74142 82.9461 7.7442 83.2524C7.74699 83.5588 7.84152 83.8573 8.0156 84.1094C8.18535 84.3615 8.42545 84.558 8.70603 84.6747C8.98661 84.7914 9.29531 84.823 9.59372 84.7657L20.2656 82.7813L22.8593 93.3438C22.9347 93.6389 23.0946 93.9056 23.3194 94.111C23.5443 94.3164 23.8243 94.4516 24.125 94.5C24.2072 94.5181 24.2909 94.5286 24.375 94.5313C24.6368 94.533 24.8948 94.4679 25.1245 94.3422C25.3541 94.2164 25.5479 94.0341 25.6875 93.8125L42.5312 67.7344C42.6562 67.7657 42.7656 67.8438 42.8906 67.875C43.1466 67.9361 43.4087 67.9676 43.6718 67.9688C45.1062 67.8107 46.4689 67.2591 47.6093 66.375C48.3191 65.8341 49.133 65.4458 50 65.2344C50.8669 65.4458 51.6809 65.8341 52.3906 66.375C53.0402 66.9276 53.7935 67.3449 54.6065 67.6025C55.4195 67.8601 56.2757 67.9527 57.125 67.875C57.25 67.8438 57.3593 67.7657 57.4687 67.7344L74.3125 93.8125C74.452 94.0341 74.6458 94.2164 74.8755 94.3422C75.1052 94.4679 75.3631 94.533 75.625 94.5313C75.7091 94.5286 75.7928 94.5181 75.875 94.5C76.1757 94.4516 76.4557 94.3164 76.6805 94.111C76.9054 93.9056 77.0653 93.6389 77.1406 93.3438L79.7343 82.7813L90.4062 84.7657C90.7046 84.8214 91.0127 84.789 91.293 84.6724C91.5732 84.5559 91.8135 84.3603 91.9843 84.1094C92.1584 83.8573 92.253 83.5588 92.2557 83.2524C92.2585 82.9461 92.1694 82.6459 92 82.3907ZM25.0312 89.0625L22.9531 80.6094C22.8597 80.2216 22.6216 79.8843 22.2875 79.6664C21.9535 79.4485 21.5487 79.3666 21.1562 79.4375L12.5937 81.0313L16.5 74.9844C20.4062 68.9219 24.3229 62.8594 28.25 56.7969C28.267 56.8687 28.2774 56.942 28.2812 57.0157C28.2577 57.8768 28.4043 58.7341 28.7126 59.5384C29.021 60.3428 29.485 61.0784 30.0781 61.7032C31.5718 62.5815 33.3521 62.8343 35.0312 62.4063C35.8816 62.2308 36.7589 62.2308 37.6093 62.4063C38.2675 62.9509 38.805 63.6268 39.1875 64.3907C39.4843 64.8438 39.7812 65.2969 40.0937 65.7344L25.0312 89.0625ZM56.875 64.5157C56.7487 64.659 56.5871 64.7667 56.4062 64.8282C55.9687 64.9219 54.8125 64.2188 54.0625 63.7344C52.8877 62.8222 51.4798 62.259 50 62.1094C48.5201 62.259 47.1123 62.8222 45.9375 63.7344C45.1875 64.2188 44.0312 64.9375 43.6093 64.8438C43.4178 64.7705 43.2464 64.6526 43.1093 64.5C42.6254 63.9585 42.2011 63.3666 41.8437 62.7344C41.1972 61.4448 40.2079 60.3582 38.9843 59.5938C38.2741 59.2705 37.4987 59.1154 36.7187 59.1407C36.0392 59.1539 35.361 59.206 34.6875 59.2969C33.7187 59.4063 32.4062 59.5625 32.0312 59.2657C31.6562 58.9688 31.5 57.6407 31.3906 56.6719C31.3716 55.2088 30.944 53.78 30.1562 52.5469C30.0319 52.3909 29.8904 52.2494 29.7343 52.125C29.6747 52.0745 29.6121 52.0275 29.5468 51.9844L29.5312 51.9688H29.5156C28.5815 51.2857 27.5342 50.7726 26.4218 50.4532C25.5 50.125 24.25 49.6875 24.0312 49.2188C23.8125 48.7813 24.25 47.5469 24.5625 46.6407C25.1884 45.3119 25.4215 43.8319 25.2343 42.375C24.7755 41.0066 23.9352 39.7977 22.8125 38.8907C22.125 38.2032 21.1718 37.25 21.1718 36.7188C21.1718 36.1875 22.125 35.2344 22.8125 34.5469C23.9352 33.6399 24.7755 32.431 25.2343 31.0625C25.4215 29.6057 25.1884 28.1257 24.5625 26.7969C24.25 25.8907 23.8125 24.6563 24.0312 24.2032C24.25 23.75 25.5156 23.3125 26.4375 22.9844C27.846 22.6532 29.1307 21.9269 30.1406 20.8907C30.94 19.6678 31.3737 18.2422 31.3906 16.7813C31.5 15.8125 31.6406 14.5 32.0312 14.1875C32.4218 13.875 33.7187 14.0313 34.6875 14.1407C36.1193 14.4457 37.608 14.3428 38.9843 13.8438C40.2116 13.0839 41.2019 11.9961 41.8437 10.7032C42.3593 9.85942 43.0781 8.7188 43.5937 8.60942C44.0312 8.50005 45.1875 9.23442 45.9375 9.70317C47.1123 10.6154 48.5201 11.1785 50 11.3282C51.4798 11.1785 52.8877 10.6154 54.0625 9.70317C54.8125 9.23442 55.9531 8.51567 56.4062 8.60942C56.9218 8.7188 57.6406 9.85942 58.1562 10.7032C58.798 11.9961 59.7884 13.0839 61.0156 13.8438C62.3919 14.3428 63.8806 14.4457 65.3125 14.1407C66.2812 14.0313 67.5937 13.875 67.9687 14.1719C68.3437 14.4688 68.5 15.7969 68.6093 16.7657C68.6284 18.2288 69.0559 19.6576 69.8437 20.8907C70.8686 21.9268 72.1616 22.6572 73.5781 23C74.5 23.3125 75.75 23.75 75.9687 24.2188C76.1875 24.6563 75.75 25.8907 75.4375 26.7969C74.8116 28.1257 74.5785 29.6057 74.7656 31.0625C75.2244 32.431 76.0647 33.6399 77.1875 34.5469C77.875 35.2344 78.8281 36.1875 78.8281 36.7188C78.8281 37.25 77.875 38.2032 77.1875 38.8907C76.0647 39.7977 75.2244 41.0066 74.7656 42.375C74.5785 43.8319 74.8116 45.3119 75.4375 46.6407C75.75 47.5469 76.1875 48.7813 75.9687 49.2344C75.75 49.6875 74.4843 50.1407 73.5781 50.4532C72.408 50.7729 71.3101 51.3139 70.3437 52.0469C70.1705 52.2018 70.0086 52.3689 69.8593 52.5469C69.0599 53.7698 68.6262 55.1954 68.6093 56.6563C68.5 57.625 68.3593 58.9375 67.9687 59.25C67.5781 59.5625 66.2812 59.4063 65.3125 59.2969C63.8812 58.9841 62.3903 59.0871 61.0156 59.5938C59.7921 60.3582 58.8028 61.4448 58.1562 62.7344C57.7951 63.3729 57.3655 63.9702 56.875 64.5157ZM78.8437 79.4375C78.4512 79.3666 78.0465 79.4485 77.7124 79.6664C77.3783 79.8843 77.1402 80.2216 77.0469 80.6094L74.9687 89.0625L59.9062 65.7344C60.2187 65.2969 60.5156 64.8438 60.8125 64.3907C61.1954 63.6314 61.7267 62.9566 62.375 62.4063C63.2307 62.231 64.113 62.231 64.9687 62.4063C66.6427 62.8353 68.4185 62.5824 69.9062 61.7032C70.5046 61.0814 70.973 60.3467 71.2842 59.5418C71.5954 58.737 71.7431 57.8782 71.7187 57.0157C71.7215 56.9419 71.7319 56.8685 71.75 56.7969C75.6718 62.8594 79.5885 68.9219 83.5 74.9844L87.4062 81.0313L78.8437 79.4375Z" fill="#F8981D"/>
</svg>
