<svg width="100" height="100" viewBox="0 0 100 100" fill="none" xmlns="http://www.w3.org/2000/svg">
<path fill-rule="evenodd" clip-rule="evenodd" d="M32.3125 52.3358C32.3125 51.2313 33.2079 50.3358 34.3125 50.3358H66.6875C67.7921 50.3358 68.6875 51.2313 68.6875 52.3358C68.6875 53.4404 67.7921 54.3358 66.6875 54.3358H34.3125C33.2079 54.3358 32.3125 53.4404 32.3125 52.3358Z" fill="#BB171B"/>
<path fill-rule="evenodd" clip-rule="evenodd" d="M32.3125 66.351C32.3125 65.2464 33.2079 64.351 34.3125 64.351H52.8125C53.9171 64.351 54.8125 65.2464 54.8125 66.351C54.8125 67.4556 53.9171 68.351 52.8125 68.351H34.3125C33.2079 68.351 32.3125 67.4556 32.3125 66.351Z" fill="#BB171B"/>
<path d="M50.8125 27.1086V10.2904H54.8125V27.1086C54.8125 29.1036 54.814 30.4807 54.9005 31.5499C54.9329 31.95 54.9757 32.2812 55.0281 32.5613C55.1129 33.0137 55.2228 33.3329 55.3543 33.5937C55.8303 34.5374 56.5882 35.3012 57.5155 35.7786C57.927 35.9903 58.4891 36.1469 59.5205 36.232C60.5759 36.3191 61.9364 36.3207 63.9125 36.3207H80.5625V40.3207H63.8277H63.8276C61.957 40.3207 60.4309 40.3208 59.1915 40.2185C57.9093 40.1126 56.7578 39.8872 55.685 39.3352C54.0021 38.4689 52.6371 37.0886 51.783 35.3952C51.2399 34.3186 51.0179 33.163 50.9135 31.8724C50.8125 30.6229 50.8125 29.0835 50.8125 27.1922V27.1922V27.1086Z" fill="#F8981D"/>
<path fill-rule="evenodd" clip-rule="evenodd" d="M28 12C24.6863 12 22 14.6863 22 18V82C22 85.3137 24.6863 88 28 88H72C75.3137 88 78 85.3137 78 82V36.7634C78 35.1945 77.3854 33.6879 76.288 32.5667L57.9238 13.8032C56.7951 12.65 55.2495 12 53.6358 12H28ZM18 18C18 12.4772 22.4772 8 28 8H53.6358C56.3252 8 58.9013 9.08331 60.7825 11.0054L79.1467 29.7688C80.9757 31.6376 82 34.1485 82 36.7634V82C82 87.5229 77.5228 92 72 92H28C22.4772 92 18 87.5229 18 82V18Z" fill="#F8981D"/>
</svg>
