<svg width="100" height="100" viewBox="0 0 100 100" fill="none" xmlns="http://www.w3.org/2000/svg">
<path d="M49.9999 39.394C44.0908 39.394 39.3939 44.0909 39.3939 50C39.3939 50.9091 39.9999 51.5151 40.909 51.5151C41.8181 51.5151 42.4241 50.9091 42.4241 50C42.4241 45.7576 45.7574 42.4242 49.9999 42.4242C50.909 42.4242 51.515 41.8182 51.515 40.9091C51.515 40 50.909 39.394 49.9999 39.394Z" fill="#BB171B"/>
<path d="M78.7878 18.1818C79.6969 18.1818 80.3029 17.5758 80.3029 16.6667C80.3029 15 81.6665 13.6364 83.3333 13.6364C84.2423 13.6364 84.8483 13.0304 84.8483 12.1213C84.8483 11.2122 84.2423 10.6062 83.3333 10.6062C80 10.6062 77.2727 13.3335 77.2727 16.6667C77.2727 17.5758 77.8787 18.1818 78.7878 18.1818Z" fill="#BB171B"/>
<path d="M15.1514 10.606C12.5756 10.606 10.606 12.5756 10.606 15.1515C10.606 16.0605 11.212 16.6665 12.121 16.6665C13.0301 16.6665 13.6361 16.0605 13.6361 15.1515C13.6361 14.2424 14.2421 13.6364 15.1512 13.6364C16.0603 13.6364 16.6663 13.0304 16.6663 12.1213C16.6663 11.2122 16.0605 10.606 15.1514 10.606Z" fill="#BB171B"/>
<path d="M81.8181 68.1818C78.5751 68.1818 75.6118 69.2949 73.2809 71.1596L62.8114 60.6902C65.2207 57.8017 66.6667 54.0781 66.6667 50C66.6667 45.8054 65.1372 41.9853 62.6029 39.0637L75.6464 26.0202C77.7421 27.7473 80.422 28.7878 83.3334 28.7878C90.0001 28.7878 95.4547 23.3333 95.4547 16.6665C95.4547 9.99982 90 4.54546 83.3332 4.54546C76.6665 4.54546 71.212 10 71.212 16.6667C71.212 19.3466 72.0946 21.8297 73.582 23.8422L60.4398 36.9844C57.5878 34.6982 53.9612 33.3333 50 33.3333C45.8877 33.3333 42.1361 34.804 39.2377 37.2496L23.7111 21.4553C24.9994 19.6992 25.7576 17.5236 25.7576 15.1515C25.7576 9.24237 21.0605 4.54546 15.1514 4.54546C9.24232 4.54546 4.54541 9.24237 4.54541 15.1515C4.54541 21.0605 9.24232 25.7575 15.1514 25.7575C17.5955 25.7575 19.8307 24.9522 21.6134 23.5918L37.1924 39.305C34.7808 42.1942 33.3332 45.9196 33.3332 49.9998C33.3332 54.0779 34.7793 57.8015 37.1885 60.69L29.2844 68.5941C26.6679 66.4455 23.3265 65.1513 19.6969 65.1513C11.3636 65.1515 4.54541 71.9696 4.54541 80.3031C4.54541 88.6365 11.3636 95.4545 19.6969 95.4545C28.0301 95.4545 34.8483 88.6364 34.8483 80.3031C34.8483 76.6736 33.5541 73.3322 31.4055 70.7156L39.3096 62.8114C42.1981 65.2207 45.9216 66.6667 49.9998 66.6667C54.0779 66.6667 57.8014 65.2207 60.6899 62.8114L71.1594 73.2809C69.2949 75.6119 68.1818 78.5751 68.1818 81.8182C68.1818 89.394 74.2423 95.4545 81.8181 95.4545C89.394 95.4545 95.4545 89.394 95.4545 81.8182C95.4545 74.2424 89.394 68.1818 81.8181 68.1818ZM83.3332 7.57582C88.3332 7.57582 92.4241 11.6667 92.4241 16.6667C92.4241 21.6667 88.3332 25.7576 83.3332 25.7576C78.3332 25.7576 74.2423 21.6667 74.2423 16.6667C74.2423 11.6667 78.3332 7.57582 83.3332 7.57582ZM7.57577 15.1515C7.57577 10.9091 10.909 7.57564 15.1516 7.57564C19.3941 7.57564 22.7272 10.9091 22.7272 15.1515C22.7272 19.3938 19.394 22.7273 15.1514 22.7273C10.9089 22.7273 7.57577 19.394 7.57577 15.1515ZM19.6969 92.4242C13.0301 92.4242 7.57559 86.9696 7.57559 80.3029C7.57559 73.6362 13.0303 68.1818 19.6969 68.1818C22.837 68.1818 25.7073 69.3926 27.8663 71.3693C27.9412 71.5295 28.0452 71.6816 28.1816 71.8182C28.3329 71.9695 28.4842 72.0829 28.6544 72.1587C30.6173 74.3148 31.818 77.1754 31.818 80.3031C31.8181 86.9696 26.3636 92.4242 19.6969 92.4242ZM36.3636 50C36.3636 46.3599 37.7656 43.0721 40.0598 40.6358C40.1427 40.5925 40.223 40.5346 40.303 40.4545C40.3975 40.3601 40.4755 40.2576 40.5404 40.1507C42.9859 37.8026 46.3121 36.3636 50 36.3636C53.547 36.3636 56.7619 37.6925 59.178 39.8832C59.2388 39.9773 59.31 40.0675 59.394 40.1515C59.5074 40.2649 59.6207 40.3571 59.7421 40.4279C62.1543 42.8833 63.6363 46.2557 63.6363 50C63.6363 53.5479 62.3069 56.7635 60.1152 59.1799C59.9105 59.2544 59.7157 59.3752 59.5454 59.5455C59.3751 59.7157 59.2544 59.9105 59.1798 60.1152C56.7634 62.307 53.5479 63.6364 50 63.6364C42.4241 63.6364 36.3636 57.5758 36.3636 50ZM81.8181 92.4242C75.909 92.4242 71.2121 87.7273 71.2121 81.8182C71.2121 75.9091 75.909 71.2122 81.8181 71.2122C87.7272 71.2122 92.4241 75.9091 92.4241 81.8182C92.4241 87.7273 87.7272 92.4242 81.8181 92.4242Z" fill="#F8981D"/>
<path d="M81.8181 74.2424C77.5758 74.2424 74.2423 77.5756 74.2423 81.8182C74.2423 82.7273 74.8483 83.3333 75.7574 83.3333C76.6665 83.3333 77.2725 82.7273 77.2725 81.8182C77.2725 79.2424 79.2421 77.2727 81.818 77.2727C82.727 77.2727 83.333 76.6667 83.333 75.7576C83.3332 74.8485 82.7272 74.2424 81.8181 74.2424Z" fill="#BB171B"/>
<path d="M19.6969 71.2122C14.6969 71.2122 10.606 75.3031 10.606 80.3031C10.606 81.2122 11.212 81.8182 12.121 81.8182C13.0301 81.8182 13.6361 81.2122 13.6361 80.3031C13.6361 76.9698 16.3634 74.2425 19.6967 74.2425C20.6058 74.2425 21.2118 73.6365 21.2118 72.7275C21.2118 71.8184 20.606 71.2122 19.6969 71.2122Z" fill="#BB171B"/>
</svg>
