<svg width="100" height="100" viewBox="0 0 100 100" fill="none" xmlns="http://www.w3.org/2000/svg">
<path d="M9.62515 49.7504C9.62515 27.4877 27.7373 9.37556 50 9.37556C61.1316 9.37556 71.7009 13.9497 79.3172 21.9921H77.2542C75.9203 21.9921 74.8391 23.0732 74.8391 24.4071C74.8391 25.741 75.9203 26.8222 77.2542 26.8222H85.4445C86.7784 26.8222 87.8595 25.741 87.8595 24.4071V16.2166C87.8595 14.8827 86.7784 13.8016 85.4445 13.8016C84.1105 13.8016 83.0294 14.8827 83.0294 16.2166V18.8922C74.4879 9.75151 62.565 4.54546 50 4.54546C25.074 4.54546 4.79504 24.8244 4.79504 49.7504C4.79504 60.7435 8.78847 71.3394 16.0393 79.5866C16.5166 80.1294 17.1835 80.4069 17.854 80.4069C18.42 80.4069 18.9889 80.2088 19.4474 79.8055C20.4492 78.9248 20.5474 77.3988 19.6664 76.3971C13.1914 69.0322 9.62515 59.569 9.62515 49.7504Z" fill="#F8981D"/>
<path d="M92.325 33.8395C91.8554 32.5909 90.4619 31.9595 89.2144 32.4291C87.966 32.8987 87.3344 34.2911 87.804 35.5397C89.5098 40.076 90.3749 44.8573 90.3749 49.7504C90.3749 72.0132 72.2628 90.1251 50.0001 90.1251C43.558 90.1251 37.1619 88.5708 31.4809 85.6336L33.6636 84.8608C34.9207 84.4153 35.579 83.0353 35.1338 81.7781C34.6886 80.5204 33.3069 79.8627 32.0511 80.3079L24.3307 83.042C23.0735 83.4874 22.4153 84.8675 22.8605 86.1247L25.5946 93.8451C25.9456 94.8358 26.8764 95.4545 27.8709 95.4545C28.1384 95.4545 28.4108 95.4097 28.6773 95.3153C29.9344 94.8698 30.5927 93.4898 30.1475 92.2326L29.3444 89.9651C35.6882 93.2281 42.8196 94.9552 50.0001 94.9552C74.9264 94.9552 95.205 74.6765 95.205 49.7504C95.205 44.2747 94.2361 38.9213 92.325 33.8395Z" fill="#F8981D"/>
<path d="M50.0001 19.672C33.596 19.672 20.2504 33.0176 20.2504 49.4217C20.2504 65.8256 33.596 79.1714 50.0001 79.1714C66.4042 79.1714 79.7498 65.8259 79.7498 49.4217C79.7501 33.0176 66.4042 19.672 50.0001 19.672ZM72.839 51.8368H74.8024C73.6606 63.6536 64.232 73.0823 52.4151 74.2241V72.2606C52.4151 70.9267 51.334 69.8456 50.0001 69.8456C48.6662 69.8456 47.585 70.9267 47.585 72.2606V74.2241C35.7682 73.0823 26.3395 63.6536 25.1977 51.8371H27.1612C28.4951 51.8371 29.5762 50.7559 29.5762 49.422C29.5762 48.0881 28.4951 47.0069 27.1612 47.0069H25.1977C26.3395 35.1901 35.7682 25.7614 47.585 24.6197V26.5831C47.585 27.917 48.6662 28.9981 50.0001 28.9981C51.334 28.9981 52.4151 27.917 52.4151 26.5831V24.6197C64.232 25.7614 73.6606 35.1901 74.8024 47.0067H72.839C71.5051 47.0067 70.4239 48.0878 70.4239 49.4217C70.4239 50.7556 71.5051 51.8368 72.839 51.8368Z" fill="#BB171B"/>
<path d="M60.8602 49.4349H59.1689H52.4151V39.791V36.3426C52.4151 35.0087 51.3339 33.9276 50 33.9276C48.6661 33.9276 47.585 35.0087 47.585 36.3426V51.8499C47.585 53.1839 48.6661 54.265 50 54.265H60.8602C62.1942 54.265 63.2753 53.1839 63.2753 51.8499C63.2753 50.516 62.1942 49.4349 60.8602 49.4349Z" fill="#F8981D"/>
</svg>
