<svg width="100" height="100" viewBox="0 0 100 100" fill="none" xmlns="http://www.w3.org/2000/svg">
<path d="M43.4123 50.5973C42.7157 49.7413 41.4617 49.6219 40.6057 50.3187C39.7497 51.0155 39.6302 52.2693 40.3271 53.1253C40.4067 53.2248 40.4862 53.3045 40.5859 53.3842L48.5481 61.4259C49.3841 62.1425 50.6381 62.0628 51.3547 61.2267C52.0116 60.4902 52.0116 59.3755 51.3747 58.6192L43.4123 50.5973Z" fill="#F8981D"/>
<path d="M73.8477 59.9327C73.788 46.9943 63.3774 36.4644 50.4987 36.1857C50.1604 36.0463 49.7821 36.0463 49.4438 36.1857C36.5451 36.4644 26.1546 46.9943 26.0948 59.9327V59.9527C26.0948 59.9527 26.0948 59.9527 26.0948 59.9727C26.0948 59.9926 26.0948 60.0124 26.0948 60.0324C26.0948 73.2296 36.784 83.9188 49.9812 83.9188C63.1785 83.9188 73.8676 73.2296 73.8676 60.0324C73.8676 60.0124 73.8676 59.9926 73.8676 59.9727C73.8676 59.9527 73.8676 59.9727 73.8676 59.9527C73.8675 59.9327 73.8477 59.9327 73.8477 59.9327ZM67.8761 61.9433H69.767C69.3888 65.8448 67.8561 69.567 65.368 72.5927L63.3576 70.5027C62.5813 69.7064 61.3273 69.7064 60.531 70.4629C59.7347 71.2192 59.7347 72.4932 60.4913 73.2895L62.5813 75.4193C59.5558 77.9074 55.8534 79.4403 51.9718 79.8383V77.9274C51.9718 76.9322 51.2552 76.0365 50.2798 75.8971C49.0458 75.7179 47.9906 76.6734 47.9906 77.8677V79.8383C44.0891 79.4403 40.4067 77.9074 37.3812 75.4193L39.4315 73.3293C40.1281 72.6127 40.2475 71.4781 39.6504 70.6818C38.894 69.6866 37.4806 69.6269 36.6446 70.4827L34.5943 72.5727C32.1062 69.5272 30.5734 65.8248 30.1953 61.9233H32.2456C32.8627 61.9233 33.4599 61.6048 33.7585 61.0673C34.6342 59.5147 33.5396 57.9421 32.0864 57.9421H30.2153C30.6133 54.0806 32.1461 50.4179 34.6143 47.4122L36.6646 49.4225C37.4609 50.1988 38.7149 50.1789 39.4912 49.3828C40.2675 48.5867 40.2475 47.3325 39.4514 46.5562L37.4411 44.5855C40.4666 42.1172 44.1492 40.5846 48.0108 40.2063V42.1769C48.0108 42.7941 48.3293 43.3912 48.8668 43.6898C50.4194 44.5656 51.992 43.4709 51.992 42.0178V40.2063C55.8735 40.5846 59.556 42.1172 62.5617 44.5855L60.5513 46.5562C59.7551 47.3325 59.7551 48.5865 60.5116 49.3828C61.2679 50.1791 62.5419 50.1791 63.3382 49.4225L65.3885 47.4122C67.8569 50.4179 69.3895 54.0804 69.7875 57.9619H67.7372C67.1201 57.9619 66.5229 58.2805 66.2244 58.8179C65.3281 60.3707 66.4229 61.9433 67.8761 61.9433Z" fill="#BB171B"/>
<path d="M93.7529 81.5898L87.861 35.4691C87.3435 30.1744 82.8846 26.1334 77.5699 26.1137H69.8865V20.1421H87.443C89.2942 20.1421 91.6231 18.8483 92.5586 17.236C95.7633 11.8018 91.9217 6.20847 86.7661 6.20847H12.5193C10.6682 6.20847 8.33923 7.50225 7.40374 9.11458C4.19904 14.5487 8.04065 20.1421 13.1962 20.1421H30.0759V26.1137H22.3923C17.0775 26.1137 12.6386 30.1346 12.1012 35.4094L6.20923 81.6495C5.87091 84.7945 6.78643 87.7206 8.77702 89.9301C10.9865 92.3784 14.3903 93.7916 18.1325 93.7916H83.8201C87.0248 93.7916 89.6325 92.7565 91.404 90.8058C93.3549 88.6363 94.1709 85.4713 93.7529 81.5898ZM13.1762 16.1609C11.5241 16.1609 10.1705 14.8272 10.1507 13.1751C10.1706 11.523 11.5241 10.1893 13.1762 10.1893H86.7463C88.3984 10.1893 89.7321 11.523 89.7321 13.1751C89.7321 14.8272 88.3984 16.1609 86.7463 16.1609H13.1762ZM65.9055 20.1421V26.1137H34.0569V20.1421H65.9055ZM88.4184 88.1386C87.4232 89.2532 85.8706 89.8106 83.8003 89.8106H18.1127C15.5051 89.8106 13.1762 88.8752 11.7031 87.2628C10.469 85.8894 9.91163 84.0779 10.1305 82.1073L16.0424 35.8671C16.3807 32.6225 19.1676 30.0947 22.3723 30.0947H77.5499C80.7546 30.0947 83.5415 32.6425 83.8998 35.9269L89.7917 82.0476C90.0705 84.7348 89.5928 86.8248 88.4184 88.1386Z" fill="#F8981D"/>
</svg>
