<svg width="20" height="20" viewBox="0 0 20 20" fill="none" xmlns="http://www.w3.org/2000/svg">
<path d="M16.6667 10C16.4444 10 16.2464 9.92 16.0725 9.76C15.8986 9.6 15.7983 9.40222 15.7717 9.16667C15.5911 7.875 15.0458 6.77417 14.1358 5.86417C13.2258 4.95417 12.125 4.40917 10.8333 4.22917C10.5972 4.20139 10.3992 4.10417 10.2392 3.9375C10.0792 3.77083 9.99945 3.56944 10 3.33333C10 3.09722 10.0833 2.89917 10.25 2.73917C10.4167 2.57917 10.6111 2.51333 10.8333 2.54167C12.5833 2.73611 14.0764 3.45139 15.3125 4.6875C16.5486 5.92361 17.2639 7.41667 17.4583 9.16667C17.4861 9.38889 17.42 9.58333 17.26 9.75C17.1 9.91667 16.9022 10 16.6667 10ZM13.1875 10C13.0069 10 12.8472 9.9375 12.7083 9.8125C12.5694 9.6875 12.4653 9.52083 12.3958 9.3125C12.2847 8.90972 12.0728 8.55194 11.76 8.23917C11.4472 7.92639 11.0897 7.71472 10.6875 7.60417C10.4792 7.53472 10.3125 7.43056 10.1875 7.29167C10.0625 7.15278 10 6.98611 10 6.79167C10 6.51389 10.0972 6.28806 10.2917 6.11417C10.4861 5.94028 10.7014 5.88139 10.9375 5.9375C11.7153 6.11806 12.3856 6.48972 12.9483 7.0525C13.5111 7.61528 13.8825 8.28528 14.0625 9.0625C14.1181 9.29861 14.0556 9.51389 13.875 9.70833C13.6944 9.90278 13.4653 10 13.1875 10ZM16.625 17.5C14.8333 17.5 13.0867 17.1006 11.385 16.3017C9.68333 15.5028 8.17639 14.4472 6.86417 13.135C5.55195 11.8228 4.49639 10.3158 3.6975 8.61417C2.89861 6.9125 2.49945 5.16611 2.5 3.375C2.5 3.125 2.58333 2.91667 2.75 2.75C2.91667 2.58333 3.125 2.5 3.375 2.5H6.75C6.94445 2.5 7.11806 2.5625 7.27083 2.6875C7.42361 2.8125 7.51389 2.97222 7.54167 3.16667L8.08333 6.08333C8.11111 6.27778 8.1075 6.455 8.0725 6.615C8.0375 6.775 7.95778 6.91722 7.83333 7.04167L5.83333 9.08333C6.41667 10.0833 7.14583 11.0208 8.02083 11.8958C8.89583 12.7708 9.86111 13.5278 10.9167 14.1667L12.875 12.2083C13 12.0833 13.1633 11.9897 13.365 11.9275C13.5667 11.8653 13.7644 11.8478 13.9583 11.875L16.8333 12.4583C17.0278 12.5 17.1875 12.5939 17.3125 12.74C17.4375 12.8861 17.5 13.0561 17.5 13.25V16.625C17.5 16.875 17.4167 17.0833 17.25 17.25C17.0833 17.4167 16.875 17.5 16.625 17.5ZM5.04167 7.5L6.41667 6.125L6.04167 4.16667H4.20833C4.27778 4.73611 4.375 5.29861 4.5 5.85417C4.625 6.40972 4.80556 6.95833 5.04167 7.5ZM15.8333 15.7917V13.9583L13.875 13.5417L12.5 14.9167C13.0417 15.1528 13.5903 15.3472 14.1458 15.5C14.7014 15.6528 15.2639 15.75 15.8333 15.7917Z" fill="white"/>
</svg>
