<svg width="100" height="100" viewBox="0 0 100 100" fill="none" xmlns="http://www.w3.org/2000/svg">
<path d="M73.9872 32.5C73.8717 30.5038 71.4975 28.944 66.7492 27.754C66.909 27.404 66.9988 27.04 67 26.662V18.5H66.9802C66.5625 11.7007 38.7002 11.5 35.5 11.5C32.2998 11.5 4.4375 11.7007 4.01983 18.5H4V18.6517V26.6655C4.00583 28.8822 6.8665 30.617 11.1225 31.9085C11.0642 32.1022 11.0292 32.2993 11.0175 32.5H11V32.6517V40.6515C6.415 41.8322 4.12483 43.3698 4.01167 45.3333H4V45.485V53.4988C4.0035 55.0423 5.39533 56.3513 7.67267 57.4422C7.58633 57.679 7.53267 57.9205 7.5175 58.1678H7.5V58.3195V66.3333C7.50933 70.2137 16.2465 72.6228 25.9543 73.7475C26.0255 73.7615 26.0908 73.7907 26.1667 73.7907C26.1888 73.7907 26.2075 73.779 26.2297 73.7778C28.101 73.989 30.0027 74.1535 31.8845 74.2713C31.9242 74.276 31.9592 74.2947 32 74.2947C32.0222 74.2947 32.0397 74.283 32.0607 74.2818C34.45 74.4265 36.8008 74.5 39 74.5C41.1992 74.5 41.8852 74.5168 44.2745 74.3709C44.2348 74.3744 44.3153 74.3709 44.2745 74.3709C44.2033 74.3849 44.3503 74.3709 44.2745 74.3709C42.5453 70.4762 41.8601 68.2366 41.9563 63.9638C40.9966 54.7712 43.2167 50.7777 49.5 44.6403C59.3493 36.7565 64.6501 36.9752 74 40V32.5H73.9872ZM38.447 59.296C38.2767 59.3007 38.1052 59.303 37.9337 59.3065C37.5172 59.3147 37.0902 59.317 36.6678 59.3205V53.493C36.9887 53.4895 37.3095 53.4848 37.6303 53.479C37.6922 53.4778 37.754 53.4767 37.8158 53.4755C38.9907 53.4533 40.1655 53.4172 41.3345 53.3635V59.1887C41.0848 59.2015 40.834 59.2132 40.5808 59.2237C39.8785 59.2552 39.1692 59.2785 38.447 59.296ZM33.3522 59.3123C32.8178 59.303 32.2858 59.2902 31.7573 59.2738C31.692 59.2715 31.6267 59.2692 31.5613 59.2668C30.9255 59.2458 30.2943 59.219 29.6678 59.1887V53.3647C30.8368 53.4195 32.0117 53.4557 33.1865 53.4767C33.2483 53.4778 33.3102 53.479 33.3708 53.4802C33.6917 53.486 34.0125 53.4907 34.3333 53.4942V59.3252C34.107 59.3228 33.8807 59.3228 33.6555 59.3193C33.5528 59.317 33.4537 59.3135 33.3522 59.3123ZM12.2798 56.6523C12.2413 56.6407 12.2052 56.6302 12.1667 56.6197V50.9835C13.2563 51.2775 14.4277 51.5458 15.6667 51.7897V57.4842C14.5957 57.2567 13.6075 57.0175 12.708 56.7725C12.5657 56.7317 12.4187 56.6932 12.2798 56.6523ZM36.8708 66.3135C37.1917 66.3193 37.5125 66.324 37.8333 66.3275V72.1597C36.221 72.1445 34.6647 72.0978 33.1667 72.0243V66.1992C34.3357 66.254 35.5105 66.2902 36.6853 66.3112C36.7472 66.3112 36.809 66.3123 36.8708 66.3135ZM41.1292 66.3123L42.2144 72.1585C40.7164 72.232 41.779 72.1433 40.1667 72.1585V66.3263C40.4875 66.3228 40.8083 66.3182 41.1292 66.3123C41.191 66.3123 41.0673 66.3135 41.1292 66.3123ZM19.1667 64.6218V70.3163C17.8763 70.0422 16.7062 69.7517 15.6667 69.4518V63.8157C16.7563 64.1097 17.9277 64.3792 19.1667 64.6218ZM21.5 65.0395C22.6293 65.2227 23.7972 65.3872 25 65.5318V71.3022C23.7668 71.14 22.599 70.9615 21.5 70.7678V65.0395ZM27.3333 65.7827C28.4813 65.8935 29.6503 65.988 30.8333 66.0662V71.8843C29.6212 71.7992 28.4545 71.6953 27.3333 71.5775V65.7827ZM24.4388 58.806C24.3198 58.7943 24.202 58.7815 24.0842 58.7698C24.0002 58.7617 23.9173 58.7512 23.8333 58.743V52.9505C24.9813 53.0613 26.1503 53.1558 27.3333 53.234V59.0475C26.3533 58.9775 25.385 58.8982 24.4388 58.806ZM21.5 52.6973V58.4677C20.2668 58.3055 19.099 58.127 18 57.9333V52.205C19.1293 52.3882 20.2972 52.5538 21.5 52.6973ZM39.3792 46.4592C38.5018 46.437 37.6443 46.4032 36.802 46.3623C36.7565 46.36 36.711 46.3577 36.6667 46.3565V40.5313C37.8357 40.5862 39.0105 40.6223 40.1853 40.6433C40.2472 40.6445 40.309 40.6457 40.3697 40.6468C40.6905 40.6527 41.0113 40.6573 41.3322 40.6608V46.486C40.764 46.4802 40.1912 46.4778 39.637 46.465C39.5518 46.4627 39.4643 46.4615 39.3792 46.4592ZM12.1667 29.7863V24.1502C13.2563 24.4442 14.4277 24.7125 15.6667 24.9563V30.6508C15.5232 30.6205 15.375 30.5902 15.235 30.5598C14.6143 30.4233 14.0088 30.281 13.4302 30.1305C12.9892 30.0173 12.5703 29.9018 12.1667 29.7863ZM33.3708 26.6468C33.6917 26.6527 34.0125 26.6573 34.3333 26.6608V32.486C32.763 32.4708 31.202 32.43 29.6667 32.353V26.5325C30.8357 26.5873 32.0105 26.6235 33.1853 26.6445C33.2472 26.6445 33.309 26.6457 33.3708 26.6468ZM37.8147 26.6433C38.9895 26.6212 40.1643 26.585 41.3333 26.5313V32.3518C41.135 32.3612 40.9448 32.3752 40.7453 32.3845C40.729 32.3857 40.7127 32.3857 40.6952 32.3868C39.9123 32.4218 39.1143 32.4475 38.3058 32.4662C38.1798 32.4697 38.0538 32.4708 37.9278 32.4743C37.5125 32.4825 37.0878 32.4837 36.6667 32.4883V26.6608C36.9875 26.6573 37.3083 26.6527 37.6292 26.6468C37.691 26.6457 37.7528 26.6445 37.8147 26.6433ZM64.3995 27.229L64.3668 27.222L63.9422 27.5522C63.3262 28.0317 62.38 28.517 61.1667 28.986V23.4362C62.5538 22.9532 63.7345 22.4177 64.6667 21.8308V26.6585C64.6667 26.8358 64.5733 27.0272 64.3995 27.229ZM49.5 31.6273V25.864C50.7028 25.7193 51.8707 25.5548 53 25.3717V31.0907C51.894 31.2867 50.7297 31.4663 49.5 31.6273ZM55.3333 30.6415V24.9563C56.5723 24.7125 57.7437 24.4442 58.8333 24.1502V29.7735C57.788 30.078 56.6108 30.3685 55.3333 30.6415ZM47.1667 26.116V31.9027C46.0397 32.0217 44.873 32.1255 43.6667 32.2118V26.3995C44.8497 26.3213 46.0187 26.2268 47.1667 26.116ZM23.8333 31.905V26.116C24.9813 26.2268 26.1503 26.3213 27.3333 26.3995V32.2072C26.1457 32.122 24.9743 32.0252 23.8333 31.905ZM21.5 25.864V31.6285C21.269 31.5982 21.0287 31.5737 20.8 31.5422C20.6507 31.5212 20.5083 31.499 20.3613 31.478C19.687 31.3812 19.0278 31.2773 18.3815 31.1688C18.252 31.1467 18.1272 31.1233 18 31.1012V25.3728C19.1293 25.5548 20.2972 25.7205 21.5 25.864ZM34.044 46.1955C33.8865 46.1838 33.7278 46.1722 33.5715 46.1605C32.8248 46.1022 32.0957 46.038 31.384 45.9668C31.2312 45.9517 31.0783 45.9353 30.9267 45.9202C30.8952 45.9167 30.8648 45.912 30.8333 45.9097V40.116C31.9813 40.2268 33.1503 40.3213 34.3333 40.3995V46.2142C34.2388 46.2072 34.1385 46.2025 34.044 46.1955ZM26.3358 45.324C25.8738 45.2505 25.4398 45.1712 25 45.0942V39.3728C26.1293 39.556 27.2972 39.7205 28.5 39.8652V45.6355C27.786 45.541 27.0872 45.443 26.4163 45.338C26.3895 45.3322 26.3627 45.3275 26.3358 45.324ZM22.6667 38.9552V44.6403C21.3775 44.3638 20.2085 44.0698 19.1667 43.7642V38.149C20.2563 38.443 21.4277 38.7125 22.6667 38.9552ZM16.8333 37.4362V42.979C14.9993 42.2708 13.8163 41.5475 13.4313 40.9035L13.3532 40.7728C13.3462 40.7367 13.3345 40.6982 13.3333 40.662V35.8308C14.2655 36.4177 15.4462 36.9532 16.8333 37.4362ZM44.8147 40.6433C45.9895 40.6212 47.1643 40.585 48.3333 40.5313V46.3507C46.8003 46.4265 45.2417 46.4685 43.6667 46.4848V40.6608C43.9875 40.6573 44.3083 40.6527 44.6292 40.6468C44.691 40.6457 44.7528 40.6445 44.8147 40.6433ZM60 39.5L56.5012 40.3995V39.864C57.704 39.7193 58.8718 39.5548 60.0012 39.3717L60 39.5ZM54.1667 41.4204L50.6667 43.8414V40.3995C51.8497 40.3213 53.0187 40.228 54.1667 40.116V41.4204ZM65.8345 38.791L62.3345 38.9563C63.5735 38.7125 64.7448 38.4442 65.8345 38.1502V38.791ZM71.6538 32.5758C71.5465 33.368 69.751 34.4215 66.5462 35.412C62.4185 36.6872 55.9598 37.855 47.7745 38.2167C47.3557 38.2342 46.938 38.2517 46.511 38.2657C46.1622 38.2773 45.8122 38.2878 45.4563 38.2972C44.4903 38.3182 43.5103 38.3333 42.5 38.3333C41.4897 38.3333 40.5097 38.3182 39.5437 38.296C39.189 38.2878 38.839 38.2762 38.489 38.2645C38.0608 38.2517 37.6432 38.233 37.2255 38.2155C29.0402 37.8538 22.5803 36.686 18.4538 35.4108C15.2747 34.4285 13.4827 33.3832 13.3497 32.5945C13.3555 32.5723 13.3555 32.5537 13.3695 32.5257C13.4488 32.5455 13.5375 32.5618 13.618 32.5817C14.0742 32.6902 14.542 32.7952 15.018 32.8955C17.3362 33.3948 19.9052 33.8043 22.6422 34.117C22.6515 34.117 22.6585 34.1217 22.6667 34.1217C22.669 34.1217 22.6725 34.1205 22.6725 34.1205C24.5368 34.3328 26.4712 34.4997 28.4568 34.6175C28.472 34.6175 28.4848 34.6257 28.5 34.6257C28.5082 34.6257 28.514 34.621 28.5222 34.621C29.9513 34.705 31.3992 34.7668 32.8645 34.7995C33.7617 34.8217 34.6425 34.8333 35.5 34.8333C36.1125 34.8333 36.7402 34.8263 37.3737 34.8147C45.8507 34.684 53.707 33.676 59.174 32.1138C59.426 32.0427 59.6722 31.9692 59.9148 31.8957C60.063 31.8502 60.2147 31.8058 60.3582 31.7603C60.7805 31.625 61.1853 31.4862 61.5762 31.3415C61.6438 31.3158 61.708 31.2902 61.7757 31.2645C62.1058 31.1397 62.4232 31.0102 62.7265 30.8783C62.814 30.8398 62.9038 30.8025 62.989 30.764C63.3122 30.6182 63.6248 30.4688 63.9142 30.3137C64.0448 30.2448 64.158 30.1737 64.2805 30.1037C64.4205 30.0232 64.5605 29.9415 64.69 29.8587C64.7635 29.812 64.851 29.7677 64.921 29.721C70.1442 30.8538 71.5208 32.0928 71.6538 32.5758ZM35.5 13.8333C54.7372 13.8333 64.4672 16.862 64.6492 18.6003C64.508 19.389 62.7172 20.4308 59.5462 21.4108C55.4185 22.686 48.9598 23.8538 40.7745 24.2155C40.3557 24.233 39.938 24.2505 39.511 24.2645C39.1622 24.2762 38.8122 24.2867 38.4563 24.296C37.4903 24.3182 36.5103 24.3333 35.5 24.3333C34.4897 24.3333 33.5097 24.3182 32.5437 24.296C32.189 24.2878 31.839 24.2762 31.489 24.2645C31.0608 24.2517 30.6432 24.233 30.2255 24.2155C22.0402 23.8538 15.5803 22.686 11.4538 21.4108C8.28167 20.4308 6.492 19.389 6.35083 18.6003C6.53283 16.862 16.2628 13.8333 35.5 13.8333ZM6.33333 26.662V21.8308C7.2655 22.4177 8.44617 22.9532 9.83333 23.4362V29.0222C7.56417 28.1717 6.33567 27.3188 6.33333 26.662ZM11.9847 42.8075C12.0022 42.8262 12.029 42.8425 12.0465 42.8612C13.6437 44.4735 16.9512 45.7405 21.0683 46.6855C21.1628 46.7077 21.2632 46.7287 21.3588 46.7508C21.661 46.8185 21.9678 46.885 22.2782 46.9492C26.0593 47.7542 30.5732 48.3363 35.4907 48.6245C35.4942 48.6245 35.4965 48.6257 35.4988 48.6257C35.5012 48.6257 35.5035 48.6245 35.5035 48.6245C37.0832 48.7167 38.699 48.7808 40.3487 48.8088C41.079 48.824 41.7977 48.8333 42.5 48.8333C43.305 48.8333 44.131 48.824 44.971 48.8042H46L44.5 50.5C44.5 50.5 48.2295 50.8178 39.385 51.1025C39.1225 51.1107 38.8635 51.12 38.5975 51.127C38.3117 51.134 38.0212 51.1387 37.7307 51.1445C36.9968 51.1562 36.2583 51.1667 35.5 51.1667C34.4897 51.1667 33.5097 51.1515 32.5437 51.1293C32.189 51.1212 31.839 51.1095 31.489 51.0978C31.0608 51.085 30.6432 51.0663 30.2255 51.0488C22.0402 50.6872 15.5803 49.5193 11.4538 48.2442C8.2455 47.2525 6.45 46.1978 6.34617 45.4057C6.47567 44.967 7.65517 43.8692 11.9847 42.8075ZM6.33333 53.4953V48.6642C7.2655 49.251 8.44617 49.7865 9.83333 50.2695V55.8333L9.16717 55.5743L9.15317 55.5883C7.3215 54.8288 6.33567 54.0833 6.33333 53.4953ZM9.83333 66.3287V61.4975C10.7655 62.0843 11.9462 62.6198 13.3333 63.1028V68.6888C11.0642 67.8383 9.83567 66.9855 9.83333 66.3287ZM41.9563 63.9638C40.9903 63.9848 40.0103 64 39 64C37.9897 64 37.0085 63.9848 36.0413 63.9627C35.6902 63.9545 35.3437 63.9428 34.9972 63.9312C34.5667 63.9172 34.1467 63.8997 33.7255 63.8822C25.5402 63.5205 19.0815 62.3527 14.9538 61.0775C11.868 60.1243 10.0853 59.1117 9.86133 58.33C10.209 58.4513 10.5695 58.5692 10.9393 58.6847C10.9767 58.6963 11.014 58.708 11.0513 58.7185C11.3663 58.8153 11.6883 58.9087 12.0185 58.9997C12.1433 59.0347 12.2693 59.0697 12.3965 59.1035C12.5832 59.1537 12.7745 59.2015 12.9658 59.2505C17.2148 60.339 22.6387 61.1102 28.4942 61.4567C28.4965 61.4567 28.4977 61.4578 28.5 61.4578L28.5035 61.4567C30.3118 61.564 32.1587 61.6305 34.0253 61.6527C34.5223 61.662 35.0158 61.6667 35.5 61.6667C36.1428 61.6667 36.8008 61.6585 37.467 61.6468C39.1692 61.6188 41.5 61.5 41.5 61.5L41.9563 63.9638ZM68.1667 38.9563V37.4373C69.5538 36.9543 70.7345 36.4188 71.6667 35.832V38.9563H68.1667Z" fill="#F8981D"/>
<path d="M69.5 63C71.4891 63 73.3968 62.2098 74.8033 60.8033C76.2098 59.3968 77 57.4891 77 55.5C77 53.5109 76.2098 51.6032 74.8033 50.1967C73.3968 48.7902 71.4891 48 69.5 48H62C61.6022 48 61.2206 48.158 60.9393 48.4393C60.658 48.7206 60.5 49.1022 60.5 49.5V60H57.5C57.1022 60 56.7206 60.158 56.4393 60.4393C56.158 60.7206 56 61.1022 56 61.5C56 61.8978 56.158 62.2794 56.4393 62.5607C56.7206 62.842 57.1022 63 57.5 63H60.5V66H57.5C57.1022 66 56.7206 66.158 56.4393 66.4393C56.158 66.7206 56 67.1022 56 67.5C56 67.8978 56.158 68.2794 56.4393 68.5607C56.7206 68.842 57.1022 69 57.5 69H60.5V76.5C60.5 76.8978 60.658 77.2794 60.9393 77.5607C61.2206 77.842 61.6022 78 62 78C62.3978 78 62.7794 77.842 63.0607 77.5607C63.342 77.2794 63.5 76.8978 63.5 76.5V69H71C71.3978 69 71.7794 68.842 72.0607 68.5607C72.342 68.2794 72.5 67.8978 72.5 67.5C72.5 67.1022 72.342 66.7206 72.0607 66.4393C71.7794 66.158 71.3978 66 71 66H63.5V63H69.5ZM63.5 51H69.5C70.6935 51 71.8381 51.4741 72.682 52.318C73.5259 53.1619 74 54.3065 74 55.5C74 56.6935 73.5259 57.8381 72.682 58.682C71.8381 59.5259 70.6935 60 69.5 60H63.5V51Z" fill="#BB171B"/>
<path d="M91.8796 60.5C91.9595 61.3279 92 62.1622 92 63L89.5 63L89.3667 60.5C88.8814 55.9635 87.083 51.6464 84.1657 48.0918C80.7166 43.889 75.917 41.0123 70.5846 39.9516C65.2522 38.8909 59.7171 39.712 54.9222 42.2749C50.1273 44.8378 46.3694 48.984 44.2888 54.007C42.2082 59.0299 41.9337 64.6189 43.5119 69.8217C45.0901 75.0244 48.4235 79.519 52.9441 82.5395C57.4647 85.5601 62.8927 86.9197 68.3034 86.3868C72.8797 85.9361 78.9809 82.3646 82.5319 79.5L84.3848 81.3848C83.7923 81.9772 83.1738 82.5385 82.5319 83.0674C78.5647 86.3356 73.7009 88.3673 68.5484 88.8748C62.5622 89.4644 56.5567 87.9601 51.5552 84.6182C46.5537 81.2763 42.8657 76.3036 41.1196 70.5474C39.3734 64.7912 39.6772 58.6076 41.9791 53.0502C44.2811 47.4929 48.4387 42.9056 53.7437 40.0701C59.0487 37.2345 65.1727 36.3261 71.0724 37.4996C76.972 38.6731 82.2822 41.856 86.0983 46.5058C89.3828 50.508 91.3854 55.3838 91.8796 60.5Z" fill="#BB171B"/>
<path fill-rule="evenodd" clip-rule="evenodd" d="M92.8482 77.1931C91.7436 77.1931 90.8482 76.2977 90.8482 75.1931V66.9131H89.1534V75.1931C89.1534 76.2977 88.2579 77.1931 87.1534 77.1931H85.7208L90.0008 82.3438L94.2808 77.1931H92.8482ZM96.9229 77.1429L90.6718 84.6656C90.4938 84.8797 90.2525 85 90.0008 85C89.7491 85 89.5077 84.8797 89.3297 84.6656L83.0787 77.1429C82.946 76.9832 82.8556 76.7797 82.819 76.5581C82.7824 76.3366 82.8012 76.107 82.873 75.8983C82.9448 75.6896 83.0665 75.5112 83.2225 75.3857C83.3786 75.2602 83.562 75.1932 83.7497 75.1931H87.1534V66.0553C87.1534 65.7524 87.2533 65.4618 87.4313 65.2476C87.6093 65.0334 87.8508 64.9131 88.1025 64.9131H91.8991C92.1508 64.9131 92.3922 65.0334 92.5702 65.2476C92.7482 65.4618 92.8482 65.7524 92.8482 66.0553V75.1931H96.2518C96.4395 75.1932 96.623 75.2602 96.779 75.3857C96.9351 75.5112 97.0567 75.6896 97.1285 75.8983C97.2004 76.107 97.2192 76.3366 97.1826 76.5581C97.1459 76.7797 97.0556 76.9832 96.9229 77.1429Z" fill="#BB171B"/>
</svg>
