<svg width="100" height="100" viewBox="0 0 100 100" fill="none" xmlns="http://www.w3.org/2000/svg">
<path d="M94.1719 65.7031C93.7344 64.4844 93.5781 64.0312 93.5 63.8438C93.0608 62.6675 92.2566 61.6627 91.205 60.9767C90.1534 60.2906 88.9098 59.9593 87.6562 60.0312C87.4219 60.0312 87.1875 60.0469 86.9375 60.0625C85 60.2187 83.0938 60.5469 81.25 60.8437C79.6719 61.1094 78.0312 61.375 76.4375 61.5469C72.7916 61.9625 69.1217 62.1296 65.4531 62.0469C62.3625 61.9541 59.2796 61.688 56.2188 61.25C56.3535 60.1652 56.1745 59.0644 55.7031 58.0781C55.3145 57.2827 54.7587 56.5805 54.0738 56.0196C53.3888 55.4587 52.5908 55.0523 51.7344 54.8281L36.9219 50.7969C34.5829 50.1725 32.1274 50.1242 29.7656 50.6562L23.3906 52.0781V46.7656C23.3906 45.9368 23.0614 45.142 22.4753 44.5559C21.8893 43.9699 21.0944 43.6406 20.2656 43.6406H8.59375C7.76495 43.6406 6.97009 43.9699 6.38404 44.5559C5.79799 45.142 5.46875 45.9368 5.46875 46.7656V85.8281C5.47122 86.6562 5.80126 87.4496 6.38677 88.0351C6.97229 88.6206 7.76571 88.9507 8.59375 88.9531H20.2656C21.0937 88.9507 21.8871 88.6206 22.4726 88.0351C23.0581 87.4496 23.3882 86.6562 23.3906 85.8281V81.7344L49.2188 86.4219C50.4047 86.6351 51.6076 86.7397 52.8125 86.7344C55.326 86.7356 57.8172 86.2639 60.1562 85.3437L90.6562 73.2656C92.1186 72.7201 93.3074 71.6208 93.9653 70.2055C94.6232 68.7902 94.6975 67.1727 94.1719 65.7031ZM20.2656 85.8281H8.59375V46.7656H20.2656V85.8281ZM89.5 70.3594L59.0156 82.4375C56.0822 83.5947 52.8837 83.9086 49.7812 83.3438L23.3906 78.5625V55.2813L30.4531 53.7031C32.3201 53.286 34.2599 53.3235 36.1094 53.8125L50.9063 57.8438C51.333 57.9491 51.7317 58.1463 52.0744 58.4215C52.4171 58.6968 52.6957 59.0435 52.8906 59.4375C53.0601 59.787 53.152 60.169 53.1601 60.5574C53.1682 60.9457 53.0923 61.3312 52.9375 61.6875C52.6649 62.2811 52.2151 62.7757 51.6498 63.103C51.0846 63.4304 50.4318 63.5746 49.7812 63.5156L36.9375 60.8594C36.5336 60.776 36.1131 60.8557 35.7677 61.0811C35.4224 61.3064 35.1801 61.6592 35.0937 62.0625C35.01 62.4683 35.0893 62.8908 35.3144 63.2387C35.5395 63.5866 35.8924 63.832 36.2969 63.9219L49.2344 66.5937C49.2854 66.6067 49.3381 66.6119 49.3906 66.6094C49.5979 66.635 49.8068 66.6454 50.0156 66.6406C50.9763 66.6413 51.9248 66.4252 52.7905 66.0086C53.6562 65.592 54.4167 64.9856 55.0156 64.2344C58.4412 64.7572 61.8956 65.0703 65.3594 65.1719C69.1687 65.2576 72.9795 65.0853 76.7656 64.6563C78.4531 64.4688 80.1406 64.2031 81.7656 63.9219C83.5469 63.625 85.3906 63.3281 87.2031 63.1719C87.8766 63.0399 88.5749 63.1394 89.1847 63.4542C89.7946 63.7691 90.2801 64.2808 90.5625 64.9062V64.9219L91.2344 66.7656C91.4774 67.4723 91.4316 68.2464 91.1068 68.9194C90.7819 69.5925 90.2045 70.11 89.5 70.3594Z" fill="#F8981D"/>
<path d="M86.5936 31.6874L83.2498 27.4218L84.0154 22.0624C84.0604 21.716 83.9899 21.3644 83.8147 21.0621C83.6396 20.7599 83.3696 20.5238 83.0467 20.3906L78.0311 18.3906L76.0154 13.3593C75.8837 13.0352 75.648 12.7642 75.3453 12.5888C75.0426 12.4134 74.6902 12.3437 74.3436 12.3906L68.9842 13.1562L64.7342 9.82807C64.4593 9.60796 64.1176 9.48804 63.7654 9.48804C63.4133 9.48804 63.0716 9.60796 62.7967 9.82807L58.5467 13.1562L53.1873 12.3906C52.8407 12.3437 52.4882 12.4134 52.1856 12.5888C51.8829 12.7642 51.6471 13.0352 51.5154 13.3593L49.4998 18.3906L44.4842 20.3906C44.1613 20.5238 43.8913 20.7599 43.7162 21.0621C43.541 21.3644 43.4705 21.716 43.5154 22.0624L44.2811 27.4218L40.9373 31.6874C40.7247 31.9627 40.6094 32.3006 40.6094 32.6484C40.6094 32.9962 40.7247 33.3341 40.9373 33.6093L44.2811 37.8749L43.5154 43.2187C43.4632 43.5659 43.5306 43.9207 43.7067 44.2245C43.8827 44.5283 44.1569 44.7632 44.4842 44.8906L49.4998 46.9062L51.5154 51.9218C51.6451 52.2474 51.8805 52.5199 52.1837 52.6956C52.4869 52.8713 52.8404 52.94 53.1873 52.8906L58.5467 52.1249L62.7967 55.4687C63.0742 55.6827 63.415 55.7981 63.7654 55.7968C64.1154 55.7956 64.4555 55.6804 64.7342 55.4687L68.9842 52.1249L74.3436 52.8906C74.6886 52.9411 75.0407 52.8747 75.3437 52.7019C75.6466 52.5292 75.8831 52.2601 76.0154 51.9374L78.0311 46.9062L83.0467 44.8906C83.3723 44.7609 83.6448 44.5255 83.8205 44.2223C83.9962 43.9191 84.0648 43.5656 84.0154 43.2187L83.2498 37.8749L86.5936 33.6093C86.8062 33.3341 86.9215 32.9962 86.9215 32.6484C86.9215 32.3006 86.8062 31.9627 86.5936 31.6874ZM80.3748 36.4687C80.2439 36.6345 80.1486 36.8256 80.0949 37.0299C80.0411 37.2342 80.03 37.4474 80.0623 37.6562L80.7498 42.4531L76.2342 44.2499C76.0383 44.3285 75.8608 44.4468 75.7129 44.5974C75.565 44.748 75.4499 44.9276 75.3748 45.1249L73.5623 49.6249L68.7654 48.9374C68.5556 48.9088 68.3421 48.9231 68.138 48.9795C67.9338 49.0359 67.7433 49.1333 67.5779 49.2656L63.7654 52.2499L59.9529 49.2656C59.6768 49.0471 59.3362 48.9263 58.9842 48.9218C58.9061 48.9218 58.8279 48.9374 58.7654 48.9374L53.9529 49.6249L52.1561 45.1249C52.0775 44.9272 51.9593 44.7476 51.8089 44.5971C51.6584 44.4467 51.4788 44.3285 51.2811 44.2499L46.7811 42.4531L47.4686 37.6562C47.4971 37.4474 47.4841 37.2351 47.4305 37.0313C47.3769 36.8276 47.2836 36.6364 47.1561 36.4687L44.1561 32.6406L47.1561 28.8281C47.2836 28.6604 47.3769 28.4692 47.4305 28.2654C47.4841 28.0617 47.4971 27.8493 47.4686 27.6406L46.7811 22.8437L51.2811 21.0312C51.4784 20.9562 51.658 20.841 51.8086 20.6931C51.9592 20.5452 52.0775 20.3677 52.1561 20.1718L53.9529 15.6718L58.7654 16.3437C58.9742 16.3751 59.1872 16.3635 59.3914 16.3098C59.5956 16.2561 59.7866 16.1613 59.9529 16.0312L63.7654 13.0312L67.5779 16.0312C67.7442 16.1613 67.9353 16.2561 68.1395 16.3098C68.3437 16.3635 68.5566 16.3751 68.7654 16.3437L73.5623 15.6718L75.3748 20.1718C75.4526 20.3657 75.5689 20.5417 75.7166 20.6894C75.8643 20.8371 76.0403 20.9534 76.2342 21.0312L80.7498 22.8437L80.0623 27.6406C80.03 27.8494 80.0411 28.0626 80.0949 28.2669C80.1486 28.4712 80.2439 28.6622 80.3748 28.8281L83.3748 32.6406L80.3748 36.4687Z" fill="#BB171B"/>
<path d="M55.9531 22.4844C55.026 22.4844 54.1197 22.7593 53.3489 23.2744C52.578 23.7894 51.9772 24.5215 51.6224 25.378C51.2677 26.2346 51.1748 27.1771 51.3557 28.0864C51.5366 28.9956 51.983 29.8309 52.6386 30.4864C53.2941 31.142 54.1294 31.5884 55.0386 31.7693C55.9479 31.9502 56.8904 31.8573 57.747 31.5026C58.6035 31.1478 59.3356 30.547 59.8506 29.7761C60.3657 29.0053 60.6406 28.099 60.6406 27.1719C60.6406 25.9287 60.1468 24.7364 59.2677 23.8573C58.3886 22.9782 57.1963 22.4844 55.9531 22.4844ZM55.9531 28.7344C55.6441 28.7344 55.342 28.6427 55.085 28.471C54.8281 28.2994 54.6278 28.0553 54.5096 27.7698C54.3913 27.4843 54.3604 27.1701 54.4207 26.867C54.4809 26.564 54.6298 26.2855 54.8483 26.067C55.0668 25.8485 55.3452 25.6997 55.6483 25.6394C55.9514 25.5791 56.2656 25.61 56.5511 25.7283C56.8366 25.8466 57.0806 26.0468 57.2523 26.3038C57.424 26.5607 57.5156 26.8628 57.5156 27.1719C57.5156 27.5863 57.351 27.9837 57.058 28.2767C56.765 28.5698 56.3675 28.7344 55.9531 28.7344Z" fill="#BB171B"/>
<path d="M71.5781 33.4219C70.651 33.4219 69.7447 33.6968 68.9739 34.2119C68.203 34.7269 67.6022 35.459 67.2474 36.3155C66.8927 37.1721 66.7998 38.1146 66.9807 39.0239C67.1616 39.9331 67.608 40.7684 68.2636 41.4239C68.9191 42.0795 69.7544 42.5259 70.6636 42.7068C71.5729 42.8877 72.5154 42.7948 73.372 42.4401C74.2285 42.0853 74.9606 41.4845 75.4756 40.7136C75.9907 39.9428 76.2656 39.0365 76.2656 38.1094C76.2656 36.8662 75.7718 35.6739 74.8927 34.7948C74.0136 33.9157 72.8213 33.4219 71.5781 33.4219ZM71.5781 39.6719C71.2691 39.6719 70.967 39.5802 70.71 39.4085C70.4531 39.2369 70.2528 38.9928 70.1346 38.7073C70.0163 38.4218 69.9854 38.1076 70.0457 37.8045C70.1059 37.5015 70.2548 37.223 70.4733 37.0045C70.6918 36.786 70.9702 36.6372 71.2733 36.5769C71.5764 36.5166 71.8906 36.5476 72.1761 36.6658C72.4616 36.7841 72.7056 36.9843 72.8773 37.2413C73.049 37.4983 73.1406 37.8003 73.1406 38.1094C73.1406 38.5238 72.976 38.9212 72.683 39.2142C72.39 39.5073 71.9925 39.6719 71.5781 39.6719Z" fill="#BB171B"/>
<path d="M54.7891 40.7219C54.9263 40.8747 55.0923 40.9989 55.2775 41.0875C55.4628 41.1761 55.6637 41.2273 55.8687 41.2381C56.0738 41.249 56.279 41.2194 56.4725 41.1509C56.6661 41.0824 56.8443 40.9765 56.9969 40.8391L72.6219 26.7766C72.93 26.4994 73.1154 26.1111 73.1372 25.6972C73.159 25.2833 73.0156 24.8777 72.7383 24.5696C72.4611 24.2615 72.0728 24.0761 71.6589 24.0543C71.245 24.0325 70.8394 24.1759 70.5313 24.4532L54.9063 38.5157C54.5982 38.7927 54.4128 39.1808 54.3909 39.5945C54.3689 40.0083 54.5121 40.4138 54.7891 40.7219Z" fill="#BB171B"/>
</svg>
