<svg width="100" height="100" viewBox="0 0 100 100" fill="none" xmlns="http://www.w3.org/2000/svg">
<path d="M69.61 84.17C69.2521 84.1693 68.9063 84.0407 68.6349 83.8074C68.3636 83.5741 68.1846 83.2514 68.1302 82.8977C68.0759 82.544 68.1498 82.1825 68.3387 81.8785C68.5275 81.5745 68.8188 81.348 69.16 81.24L74.71 79.5C74.8998 79.4331 75.1012 79.4051 75.302 79.4176C75.5029 79.4302 75.6992 79.483 75.8793 79.573C76.0593 79.663 76.2194 79.7883 76.35 79.9414C76.4806 80.0946 76.579 80.2724 76.6395 80.4644C76.6999 80.6564 76.721 80.8586 76.7017 81.059C76.6823 81.2593 76.6228 81.4537 76.5268 81.6306C76.4307 81.8074 76.3 81.9632 76.1425 82.0885C75.985 82.2138 75.8039 82.3062 75.61 82.36L70.06 84.1C69.9148 84.1476 69.7628 84.1712 69.61 84.17Z" fill="#F8981D"/>
<path d="M50 90.25C49.8049 90.2553 49.6108 90.2215 49.429 90.1506C49.2472 90.0796 49.0815 89.9729 48.9417 89.8368C48.8018 89.7007 48.6907 89.5379 48.6148 89.3581C48.539 89.1783 48.4999 88.9851 48.5 88.79V40C48.4986 39.6806 48.5999 39.3692 48.789 39.1117C48.978 38.8542 49.2448 38.6643 49.55 38.57L87.43 26.76C87.6551 26.6903 87.8934 26.6739 88.1259 26.712C88.3585 26.7502 88.579 26.842 88.77 26.98C88.9589 27.1202 89.1125 27.3026 89.2184 27.5127C89.3243 27.7228 89.3796 27.9547 89.38 28.19V56.76C89.38 57.1578 89.222 57.5393 88.9407 57.8207C88.6594 58.102 88.2778 58.26 87.88 58.26C87.4822 58.26 87.1007 58.102 86.8194 57.8207C86.5381 57.5393 86.38 57.1578 86.38 56.76V30.23L51.54 41.13V88.71C51.5413 88.9126 51.5024 89.1135 51.4255 89.3009C51.3486 89.4883 51.2352 89.6586 51.0919 89.8019C50.9487 89.9452 50.7784 90.0586 50.5909 90.1355C50.4035 90.2124 50.2026 90.2513 50 90.25Z" fill="#F8981D"/>
<path d="M50 90.29C49.6421 90.2893 49.2963 90.1607 49.0249 89.9274C48.7536 89.6941 48.5746 89.3714 48.5203 89.0177C48.4659 88.664 48.5399 88.3025 48.7287 87.9985C48.9175 87.6945 49.2088 87.4681 49.55 87.36L69.12 81.24C69.3111 81.1685 69.5149 81.1368 69.7187 81.1468C69.9225 81.1568 70.1221 81.2083 70.3054 81.2981C70.4886 81.3879 70.6516 81.5141 70.7844 81.6691C70.9172 81.824 71.0169 82.0045 71.0776 82.1993C71.1382 82.3942 71.1584 82.5993 71.137 82.8023C71.1157 83.0052 71.0531 83.2017 70.9531 83.3796C70.8532 83.5575 70.718 83.7132 70.5558 83.837C70.3937 83.9609 70.2079 84.0504 70.01 84.1L50.49 90.22C50.3321 90.2721 50.1662 90.2958 50 90.29Z" fill="#F8981D"/>
<path d="M56 81.29C55.6421 81.2893 55.2963 81.1607 55.0249 80.9274C54.7536 80.6941 54.5746 80.3714 54.5203 80.0177C54.4659 79.664 54.5399 79.3025 54.7287 78.9985C54.9175 78.6945 55.2088 78.4681 55.55 78.36L69.38 74C69.5698 73.9331 69.7712 73.9051 69.9721 73.9176C70.173 73.9302 70.3693 73.983 70.5493 74.073C70.7293 74.163 70.8894 74.2883 71.02 74.4414C71.1506 74.5946 71.249 74.7724 71.3095 74.9644C71.3699 75.1564 71.391 75.3586 71.3717 75.559C71.3523 75.7593 71.2929 75.9537 71.1968 76.1306C71.1007 76.3074 70.9701 76.4632 70.8126 76.5885C70.655 76.7138 70.4739 76.8062 70.28 76.86L56.49 81.22C56.3321 81.2721 56.1662 81.2957 56 81.29Z" fill="#F8981D"/>
<path d="M56 74.29C55.6421 74.2893 55.2963 74.1607 55.0249 73.9274C54.7536 73.6941 54.5746 73.3714 54.5203 73.0177C54.4659 72.664 54.5399 72.3025 54.7287 71.9985C54.9175 71.6945 55.2088 71.468 55.55 71.36L66.08 68.07C66.4593 67.948 66.8714 67.9817 67.2259 68.1636C67.5803 68.3455 67.848 68.6607 67.97 69.04C68.092 69.4193 68.0583 69.8314 67.8764 70.1859C67.6945 70.5403 67.3793 70.808 67 70.93L56.49 74.22C56.3321 74.272 56.1662 74.2957 56 74.29Z" fill="#F8981D"/>
<path d="M50 90.21C49.8504 90.212 49.7016 90.1883 49.56 90.14L11.7 78.3C11.393 78.2075 11.124 78.0183 10.933 77.7607C10.742 77.5031 10.6393 77.1907 10.64 76.87V28.11C10.64 27.7122 10.7981 27.3306 11.0794 27.0493C11.3607 26.768 11.7422 26.61 12.14 26.61C12.2961 26.6081 12.4515 26.6317 12.6 26.68L22.87 29.88C23.1743 29.9789 23.4397 30.1714 23.6282 30.43C23.8167 30.6885 23.9189 31 23.92 31.32V51.94C24.0383 52.1326 24.113 52.3488 24.1389 52.5734C24.1649 52.798 24.1413 53.0255 24.07 53.24C23.9342 53.6142 23.657 53.9203 23.298 54.0923C22.939 54.2643 22.5268 54.2886 22.15 54.16L21.92 54.08C21.6274 53.975 21.3744 53.7823 21.1954 53.5282C21.0165 53.274 20.9203 52.9708 20.92 52.66V32.42L13.64 30.14V75.77L48.54 86.67V41.05L40.37 38.5V58C40.37 58.3978 40.212 58.7794 39.9307 59.0607C39.6494 59.342 39.2678 59.5 38.87 59.5C38.4722 59.5 38.0907 59.342 37.8094 59.0607C37.5281 58.7794 37.37 58.3978 37.37 58V36.46C37.3659 36.2232 37.4179 35.9888 37.5218 35.7759C37.6257 35.5631 37.7786 35.3779 37.9678 35.2354C38.1571 35.093 38.3773 34.9974 38.6106 34.9565C38.8439 34.9156 39.0836 34.9305 39.31 35L50.49 38.5C50.7867 38.6017 51.0434 38.7949 51.2232 39.052C51.4029 39.309 51.4964 39.6164 51.49 39.93V88.71C51.492 88.9457 51.4377 89.1785 51.3316 89.3889C51.2255 89.5994 51.0707 89.7815 50.88 89.92C50.6246 90.1071 50.3166 90.2086 50 90.21Z" fill="#F8981D"/>
<path d="M50 41.49C49.8056 41.4887 49.6134 41.4491 49.4344 41.3735C49.2553 41.2979 49.0929 41.1878 48.9564 41.0495C48.8199 40.9111 48.712 40.7472 48.6388 40.5671C48.5657 40.3871 48.5287 40.1944 48.53 40C48.53 39.6022 48.688 39.2206 48.9693 38.9393C49.2506 38.658 49.6322 38.5 50.03 38.5C50.4278 38.5 50.8094 38.658 51.0907 38.9393C51.372 39.2206 51.53 39.6022 51.53 40C51.5221 40.3996 51.3571 40.7801 51.0708 41.059C50.7844 41.3379 50.3997 41.4927 50 41.49Z" fill="#F8981D"/>
<path d="M12.16 29.6C11.8149 29.5982 11.4811 29.4775 11.2146 29.2582C10.9482 29.0389 10.7655 28.7344 10.6974 28.3962C10.6292 28.0579 10.6798 27.7064 10.8406 27.4011C11.0014 27.0958 11.2625 26.8552 11.58 26.72L49.58 10.9C49.9473 10.7462 50.3607 10.7446 50.7292 10.8955C51.0977 11.0465 51.3912 11.3377 51.545 11.705C51.6988 12.0723 51.7005 12.4857 51.5495 12.8542C51.3985 13.2227 51.1073 13.5162 50.74 13.67L12.74 29.49C12.5564 29.5663 12.3589 29.6038 12.16 29.6Z" fill="#F8981D"/>
<path d="M61.75 18.66C61.5506 18.6587 61.3535 18.6179 61.17 18.54L49.62 13.66C49.4263 13.5928 49.2484 13.4866 49.0973 13.3479C48.9462 13.2093 48.8252 13.0411 48.7416 12.8538C48.6581 12.6665 48.6139 12.4641 48.6117 12.2591C48.6094 12.054 48.6493 11.8507 48.7287 11.6616C48.8082 11.4726 48.9256 11.3018 49.0736 11.16C49.2216 11.0181 49.3972 10.908 49.5894 10.8366C49.7817 10.7653 49.9865 10.7341 50.1913 10.7449C50.3961 10.7558 50.5964 10.8086 50.78 10.9L62.34 15.78C62.5259 15.8563 62.6945 15.9691 62.836 16.1118C62.9774 16.2545 63.0887 16.4241 63.1634 16.6106C63.238 16.7972 63.2744 16.9968 63.2703 17.1977C63.2663 17.3986 63.222 17.5966 63.14 17.78C63.0172 18.0446 62.8208 18.2683 62.5743 18.4243C62.3279 18.5803 62.0417 18.6622 61.75 18.66Z" fill="#F8981D"/>
<path d="M87.89 29.69C87.6907 29.6887 87.4935 29.6479 87.31 29.57L61.17 18.57C60.9812 18.4985 60.8089 18.3896 60.6632 18.2498C60.5175 18.1101 60.4015 17.9424 60.3222 17.7567C60.2429 17.5711 60.2018 17.3714 60.2015 17.1695C60.2013 16.9676 60.2417 16.7678 60.3205 16.5819C60.3993 16.396 60.5148 16.228 60.6601 16.0878C60.8054 15.9477 60.9774 15.8383 61.166 15.7662C61.3546 15.6941 61.5557 15.6608 61.7575 15.6684C61.9592 15.6759 62.1574 15.7241 62.34 15.81L88.48 26.81C88.7983 26.9456 89.0599 27.187 89.2206 27.4933C89.3812 27.7997 89.4311 28.1522 89.3616 28.491C89.2922 28.8299 89.1078 29.1344 88.8396 29.3529C88.5714 29.5714 88.236 29.6905 87.89 29.69Z" fill="#F8981D"/>
<path d="M38.87 59.53C38.4722 59.53 38.0906 59.372 37.8093 59.0907C37.528 58.8094 37.37 58.4278 37.37 58.03V36.66C37.332 36.4326 37.3491 36.1994 37.42 35.98C37.4759 35.7897 37.5693 35.6125 37.6946 35.4588C37.8199 35.3051 37.9747 35.1779 38.1498 35.0848C38.3249 34.9917 38.5168 34.9344 38.7143 34.9164C38.9118 34.8984 39.1109 34.92 39.3 34.98C39.6064 35.0782 39.8744 35.2698 40.0663 35.5281C40.2582 35.7864 40.3644 36.0983 40.37 36.42V58C40.374 58.1995 40.3381 58.3978 40.2645 58.5833C40.1909 58.7687 40.0811 58.9376 39.9414 59.0801C39.8017 59.2226 39.635 59.3358 39.451 59.413C39.2671 59.4903 39.0695 59.5301 38.87 59.53Z" fill="#BB171B"/>
<path d="M22.65 54.24C22.4803 54.2379 22.3119 54.2109 22.15 54.16L21.92 54.08C21.6274 53.975 21.3744 53.7823 21.1954 53.5282C21.0164 53.274 20.9202 52.9708 20.92 52.66V31.32C20.92 30.9222 21.078 30.5407 21.3593 30.2593C21.6406 29.978 22.0222 29.82 22.42 29.82C22.8178 29.82 23.1993 29.978 23.4806 30.2593C23.7619 30.5407 23.92 30.9222 23.92 31.32V51.94C24.0383 52.1326 24.113 52.3488 24.1389 52.5734C24.1648 52.798 24.1413 53.0255 24.07 53.24C23.9638 53.5318 23.7707 53.784 23.5169 53.9628C23.263 54.1416 22.9605 54.2383 22.65 54.24Z" fill="#BB171B"/>
<path d="M22.4326 32.85C22.096 32.8426 21.7716 32.7221 21.5117 32.5079C21.2518 32.2937 21.0716 31.9983 21 31.6692C20.9284 31.3401 20.9696 30.9966 21.1171 30.6938C21.2645 30.391 21.5095 30.1466 21.8126 30L38.9826 22.86C39.3479 22.7179 39.7543 22.7245 40.1149 22.8783C40.4754 23.0321 40.7614 23.3209 40.9117 23.6828C41.062 24.0448 41.0646 24.4513 40.919 24.8152C40.7734 25.1791 40.4911 25.4716 40.1326 25.63L23.0026 32.73C22.8226 32.8079 22.6288 32.8487 22.4326 32.85Z" fill="#BB171B"/>
<path d="M38.8236 37.8241C38.5443 37.8245 38.2713 37.7383 38.0405 37.5768C37.8097 37.4153 37.6316 37.186 37.5297 36.9189C37.4528 36.7423 37.4113 36.5516 37.4075 36.3582C37.4038 36.1648 37.4379 35.9726 37.5078 35.793C37.5778 35.6133 37.6822 35.45 37.8148 35.3126C37.9474 35.1752 38.1055 35.0665 38.2798 34.9931L52.4557 28.9364C52.8001 28.7883 53.1876 28.7867 53.5331 28.9321C53.8786 29.0775 54.1538 29.3578 54.298 29.7115C54.4422 30.0652 54.4437 30.4633 54.3022 30.8181C54.1606 31.173 53.8876 31.4555 53.5432 31.6037L39.3674 37.7182C39.1948 37.7904 39.0099 37.8264 38.8236 37.8241Z" fill="#BB171B"/>
<path d="M38.87 59.53C38.6166 59.5293 38.3674 59.4648 38.1455 59.3424C37.9235 59.2201 37.7359 59.0439 37.6 58.83L29.6 46.28C29.3996 45.9448 29.3378 45.5446 29.4279 45.1645C29.5179 44.7844 29.7526 44.4545 30.0821 44.2448C30.4117 44.0351 30.81 43.9622 31.1924 44.0416C31.5748 44.121 31.9112 44.3465 32.13 44.67L40.13 57.22C40.2719 57.4471 40.3508 57.7078 40.3588 57.9755C40.3667 58.2432 40.3033 58.5081 40.175 58.7432C40.0468 58.9783 39.8584 59.175 39.6291 59.3133C39.3997 59.4516 39.1378 59.5263 38.87 59.53Z" fill="#BB171B"/>
<path d="M22.65 54.24C22.4376 54.241 22.2274 54.1959 22.0341 54.1078C21.8407 54.0198 21.6688 53.8909 21.53 53.73C21.3994 53.5832 21.2991 53.412 21.2349 53.2263C21.1708 53.0406 21.1439 52.8441 21.156 52.6479C21.1681 52.4518 21.2189 52.26 21.3054 52.0836C21.3918 51.9072 21.5124 51.7496 21.66 51.62L29.87 44.35C30.1684 44.0848 30.5599 43.9489 30.9584 43.9724C31.3569 43.9958 31.7298 44.1766 31.995 44.475C32.2602 44.7734 32.3961 45.1649 32.3726 45.5634C32.3492 45.9619 32.1684 46.3348 31.87 46.6L23.66 53.86C23.3848 54.1119 23.023 54.248 22.65 54.24Z" fill="#BB171B"/>
<path d="M53 31.65C52.7864 31.6513 52.575 31.607 52.38 31.52L39.2 25.59C38.8622 25.412 38.605 25.1119 38.4808 24.7508C38.3567 24.3897 38.3748 23.9949 38.5317 23.6468C38.6885 23.2987 38.9722 23.0235 39.325 22.8773C39.6777 22.7311 40.0729 22.7249 40.43 22.86L53.57 28.78C53.8809 28.9183 54.1356 29.1582 54.2922 29.4604C54.4487 29.7625 54.4979 30.1089 54.4316 30.4427C54.3653 30.7765 54.1875 31.0778 53.9273 31.2972C53.6672 31.5166 53.3402 31.641 53 31.65Z" fill="#BB171B"/>
<path d="M81.88 84.2C78.8817 84.2079 75.9483 83.3265 73.4509 81.6673C70.9534 80.0081 69.0041 77.6455 67.8494 74.8784C66.6947 72.1113 66.3864 69.064 66.9636 66.1217C67.5408 63.1794 68.9775 60.4744 71.0921 58.3486C73.2066 56.2229 75.9041 54.7719 78.8433 54.1792C81.7824 53.5865 84.8314 53.8787 87.6045 55.0188C90.3777 56.1589 92.7505 58.0957 94.4228 60.5843C96.0952 63.073 96.9921 66.0016 97 69C97.0053 73.0191 95.4166 76.8762 92.5822 79.7256C89.7478 82.575 85.8991 84.1841 81.88 84.2ZM81.88 56.88C79.4716 56.8721 77.1151 57.5795 75.1093 58.9126C73.1034 60.2458 71.5387 62.1445 70.6134 64.3681C69.688 66.5916 69.4439 69.0399 69.9118 71.4024C70.3797 73.765 71.5386 75.9353 73.2417 77.6383C74.9447 79.3414 77.115 80.5003 79.4776 80.9682C81.8401 81.4361 84.2884 81.192 86.5119 80.2666C88.7355 79.3413 90.6342 77.7766 91.9674 75.7707C93.3005 73.7649 94.0079 71.4084 94 69C93.9868 65.7896 92.7057 62.7145 90.4356 60.4444C88.1655 58.1743 85.0904 56.8932 81.88 56.88Z" fill="#BB171B"/>
<path d="M80.29 75.42C79.8923 75.4244 79.5085 75.2738 79.22 75L73.94 69.7C73.675 69.4157 73.5308 69.0396 73.5376 68.651C73.5445 68.2624 73.7019 67.8916 73.9768 67.6168C74.2516 67.3419 74.6224 67.1845 75.011 67.1777C75.3996 67.1708 75.7756 67.3151 76.06 67.58L81.35 72.88C81.6285 73.1625 81.7846 73.5433 81.7846 73.94C81.7846 74.3367 81.6285 74.7175 81.35 75C81.064 75.2714 80.6842 75.4218 80.29 75.42Z" fill="#BB171B"/>
<path d="M80.29 75.42C79.9936 75.417 79.7046 75.3268 79.4591 75.1607C79.2136 74.9946 79.0224 74.7599 78.9094 74.4858C78.7964 74.2118 78.7665 73.9106 78.8235 73.6197C78.8805 73.3288 79.0219 73.0611 79.23 72.85L88.14 63.94C88.4244 63.675 88.8005 63.5308 89.1891 63.5376C89.5777 63.5445 89.9484 63.7019 90.2233 63.9768C90.4981 64.2516 90.6555 64.6224 90.6624 65.011C90.6692 65.3996 90.525 65.7756 90.26 66.06L81.35 75C81.064 75.2713 80.6843 75.4218 80.29 75.42Z" fill="#BB171B"/>
</svg>
