<svg width="100" height="100" viewBox="0 0 100 100" fill="none" xmlns="http://www.w3.org/2000/svg">
<path d="M21.0761 71.1631C21.6402 71.7293 22.0725 72.4131 22.3421 73.1655C22.6117 73.918 22.712 74.7206 22.6359 75.5163C22.2539 79.1988 21.5298 82.8377 20.4728 86.3859C28.0543 84.6304 32.6848 82.5978 34.788 81.5326C35.981 80.9284 37.3548 80.7852 38.6467 81.1304C42.3502 82.1178 46.1672 82.6148 50 82.6087C71.7174 82.6087 88.0435 67.3533 88.0435 50C88.0435 32.6522 71.7174 17.3913 50 17.3913C28.2826 17.3913 11.9565 32.6522 11.9565 50C11.9565 57.9783 15.3098 65.3805 21.0761 71.1631ZM18.3967 92.3859C17.1091 92.6412 15.8172 92.8749 14.5217 93.087C13.4348 93.2609 12.6087 92.1305 13.038 91.1196C13.5206 89.9815 13.9629 88.8268 14.3641 87.6576L14.3804 87.6033C15.7282 83.6902 16.8261 79.1902 17.2282 75C10.5598 68.3152 6.52173 59.5652 6.52173 50C6.52173 28.9891 25.9891 11.9565 50 11.9565C74.0109 11.9565 93.4782 28.9891 93.4782 50C93.4782 71.0109 74.0109 88.0435 50 88.0435C45.6937 88.0493 41.4053 87.4902 37.2446 86.3805C34.4185 87.8098 28.3369 90.4131 18.3967 92.3859Z" fill="#F8981D"/>
<path d="M44.9239 43.2609C43.8652 41.6122 42.3001 40.3517 40.4637 39.6688C38.6272 38.9859 36.6188 38.9175 34.7401 39.4738C32.8615 40.0302 31.2142 41.1813 30.0458 42.7541C28.8774 44.3269 28.251 46.2364 28.2609 48.1957C28.2618 49.8181 28.6985 51.4106 29.5252 52.8066C30.3519 54.2027 31.5384 55.3511 32.9606 56.1319C34.3829 56.9127 35.9887 57.2972 37.6103 57.2454C39.232 57.1935 40.8099 56.7071 42.1793 55.837C41.4674 57.9511 40.1413 60.2065 37.9565 62.4674C37.5385 62.8998 37.3094 63.4806 37.3196 64.0819C37.3246 64.3797 37.3883 64.6735 37.5069 64.9467C37.6255 65.2198 37.7967 65.4669 38.0109 65.6739C38.225 65.8809 38.4778 66.0437 38.7548 66.153C39.0318 66.2622 39.3276 66.3159 39.6254 66.3108C40.2267 66.3006 40.7994 66.052 41.2174 65.6196C49.2935 57.25 48.2446 48.1522 44.9239 43.2717V43.2609ZM66.663 43.2609C65.6044 41.6122 64.0392 40.3517 62.2028 39.6688C60.3664 38.9859 58.3579 38.9175 56.4793 39.4738C54.6006 40.0302 52.9533 41.1813 51.7849 42.7541C50.6165 44.3269 49.9902 46.2364 50 48.1957C50.001 49.8181 50.4376 51.4106 51.2643 52.8066C52.0911 54.2027 53.2775 55.3511 54.6998 56.1319C56.122 56.9127 57.7278 57.2972 59.3495 57.2454C60.9711 57.1935 62.5491 56.7071 63.9185 55.837C63.2065 57.9511 61.8804 60.2065 59.6956 62.4674C59.4887 62.6815 59.3259 62.9343 59.2166 63.2113C59.1073 63.4883 59.0537 63.7842 59.0587 64.0819C59.0638 64.3797 59.1274 64.6735 59.246 64.9467C59.3646 65.2198 59.5359 65.4669 59.75 65.6739C59.9641 65.8809 60.2169 66.0437 60.4939 66.153C60.7709 66.2622 61.0668 66.3159 61.3645 66.3108C61.6623 66.3058 61.9561 66.2421 62.2293 66.1235C62.5024 66.0049 62.7495 65.8337 62.9565 65.6196C71.0326 57.25 69.9837 48.1522 66.663 43.2717V43.2609Z" fill="#BB171B"/>
</svg>
