<svg width="20" height="20" viewBox="0 0 20 20" fill="none" xmlns="http://www.w3.org/2000/svg">
<path d="M15.2499 4.75834C15.1728 4.68108 15.0813 4.61979 14.9805 4.57798C14.8797 4.53616 14.7716 4.51463 14.6624 4.51463C14.5533 4.51463 14.4452 4.53616 14.3444 4.57798C14.2436 4.61979 14.152 4.68108 14.0749 4.75834L9.99994 8.825L5.92494 4.75C5.84779 4.67285 5.7562 4.61165 5.6554 4.5699C5.55459 4.52814 5.44655 4.50665 5.33744 4.50665C5.22833 4.50665 5.12029 4.52814 5.01949 4.5699C4.91869 4.61165 4.82709 4.67285 4.74994 4.75C4.67279 4.82715 4.61159 4.91875 4.56984 5.01955C4.52808 5.12035 4.50659 5.22839 4.50659 5.3375C4.50659 5.44661 4.52808 5.55465 4.56984 5.65546C4.61159 5.75626 4.67279 5.84785 4.74994 5.925L8.82494 10L4.74994 14.075C4.67279 14.1522 4.61159 14.2437 4.56984 14.3446C4.52808 14.4454 4.50659 14.5534 4.50659 14.6625C4.50659 14.7716 4.52808 14.8797 4.56984 14.9805C4.61159 15.0813 4.67279 15.1729 4.74994 15.25C4.82709 15.3272 4.91869 15.3884 5.01949 15.4301C5.12029 15.4719 5.22833 15.4934 5.33744 15.4934C5.44655 15.4934 5.55459 15.4719 5.6554 15.4301C5.7562 15.3884 5.84779 15.3272 5.92494 15.25L9.99994 11.175L14.0749 15.25C14.1521 15.3272 14.2437 15.3884 14.3445 15.4301C14.4453 15.4719 14.5533 15.4934 14.6624 15.4934C14.7715 15.4934 14.8796 15.4719 14.9804 15.4301C15.0812 15.3884 15.1728 15.3272 15.2499 15.25C15.3271 15.1729 15.3883 15.0813 15.43 14.9805C15.4718 14.8797 15.4933 14.7716 15.4933 14.6625C15.4933 14.5534 15.4718 14.4454 15.43 14.3446C15.3883 14.2437 15.3271 14.1522 15.2499 14.075L11.1749 10L15.2499 5.925C15.5666 5.60834 15.5666 5.075 15.2499 4.75834Z" fill="white"/>
</svg>
