<svg width="24" height="24" viewBox="0 0 24 24" fill="none" xmlns="http://www.w3.org/2000/svg">
<path fill-rule="evenodd" clip-rule="evenodd" d="M11.1515 2.7516C11.3765 2.52663 11.6817 2.40025 11.9999 2.40025C12.3181 2.40025 12.6233 2.52663 12.8483 2.7516L15.5442 5.43828C15.5635 5.45749 15.5964 5.44384 15.5964 5.41661C15.5964 5.0788 15.8703 4.80494 16.2081 4.80494H17.3978C17.7291 4.80494 17.9978 5.07357 17.9978 5.40494V7.81823C17.9978 7.87127 18.0188 7.92214 18.0563 7.95965L21.2483 11.1516C21.4161 11.3194 21.5303 11.5332 21.5766 11.766C21.6229 11.9987 21.5991 12.2399 21.5083 12.4592C21.4175 12.6784 21.2637 12.8658 21.0664 12.9977C20.8691 13.1295 20.6372 13.1999 20.3999 13.2H19.1999V20.4C19.1999 20.7183 19.0735 21.0235 18.8484 21.2485C18.6234 21.4736 18.3182 21.6 17.9999 21.6H14.3999C14.0816 21.6 13.7764 21.4736 13.5514 21.2485C13.3263 21.0235 13.1999 20.7183 13.1999 20.4V16.8C13.1999 16.4817 13.0735 16.1765 12.8484 15.9515C12.6234 15.7264 12.3182 15.6 11.9999 15.6C11.6816 15.6 11.3764 15.7264 11.1514 15.9515C10.9263 16.1765 10.7999 16.4817 10.7999 16.8V20.4C10.7999 20.7183 10.6735 21.0235 10.4484 21.2485C10.2234 21.4736 9.91815 21.6 9.59989 21.6H5.99989C5.68163 21.6 5.37641 21.4736 5.15136 21.2485C4.92632 21.0235 4.79989 20.7183 4.79989 20.4V13.2H3.59989C3.36259 13.1999 3.13063 13.1295 2.93334 12.9977C2.73605 12.8658 2.58228 12.6784 2.49148 12.4592C2.40067 12.2399 2.37691 11.9987 2.42319 11.766C2.46947 11.5332 2.58372 11.3194 2.75149 11.1516L11.1515 2.7516Z" fill="#BB171B"/>
</svg>
