<svg width="134" height="50" viewBox="0 0 134 50" fill="none" xmlns="http://www.w3.org/2000/svg">
<circle cx="25" cy="25" r="25" fill="#CCCCCC"/>
<path d="M74.0332 16.7812V19.1543H68.2031V16.7812H74.0332ZM76.1035 16.7812V31H73.2617V16.7812H76.1035ZM67.8516 16.7812H70.6836L70.4004 23.9492C70.3613 25.0169 70.2767 25.9447 70.1465 26.7324C70.0163 27.5202 69.8405 28.1875 69.6191 28.7344C69.4043 29.2747 69.1341 29.7142 68.8086 30.0527C68.4831 30.3848 68.1055 30.6257 67.6758 30.7754C67.2461 30.9251 66.7611 31 66.2207 31H65.5469V28.6367L65.8691 28.5977C66.123 28.5651 66.3477 28.4837 66.543 28.3535C66.7383 28.2168 66.9043 28.015 67.041 27.748C67.1777 27.4746 67.2884 27.1263 67.373 26.7031C67.4642 26.2734 67.5326 25.7526 67.5781 25.1406C67.6302 24.5286 67.666 23.8158 67.6855 23.002L67.8516 16.7812ZM77.9883 26.0781V25.3652C77.9883 24.5384 78.0859 23.806 78.2812 23.168C78.4831 22.5299 78.7695 21.9961 79.1406 21.5664C79.5117 21.1302 79.9577 20.8014 80.4785 20.5801C81.0059 20.3522 81.5951 20.2383 82.2461 20.2383C82.9036 20.2383 83.4928 20.3522 84.0137 20.5801C84.541 20.8014 84.9902 21.1302 85.3613 21.5664C85.7389 21.9961 86.0286 22.5299 86.2305 23.168C86.4323 23.806 86.5332 24.5384 86.5332 25.3652V26.0781C86.5332 26.8984 86.4323 27.6276 86.2305 28.2656C86.0286 28.9036 85.7389 29.4408 85.3613 29.877C84.9902 30.3132 84.5443 30.6419 84.0234 30.8633C83.5026 31.0846 82.9167 31.1953 82.2656 31.1953C81.6146 31.1953 81.0254 31.0846 80.498 30.8633C79.9772 30.6419 79.528 30.3132 79.1504 29.877C78.7728 29.4408 78.4831 28.9036 78.2812 28.2656C78.0859 27.6276 77.9883 26.8984 77.9883 26.0781ZM80.7227 25.3652V26.0781C80.7227 26.5664 80.7552 26.9896 80.8203 27.3477C80.8919 27.7057 80.9928 28.002 81.123 28.2363C81.2598 28.4707 81.4225 28.6432 81.6113 28.7539C81.8001 28.8646 82.0182 28.9199 82.2656 28.9199C82.513 28.9199 82.7344 28.8646 82.9297 28.7539C83.125 28.6432 83.2845 28.4707 83.4082 28.2363C83.5384 28.002 83.6328 27.7057 83.6914 27.3477C83.7565 26.9896 83.7891 26.5664 83.7891 26.0781V25.3652C83.7891 24.89 83.7533 24.4733 83.6816 24.1152C83.61 23.7507 83.5091 23.4544 83.3789 23.2266C83.2487 22.9922 83.0859 22.8164 82.8906 22.6992C82.7018 22.5755 82.487 22.5137 82.2461 22.5137C82.0052 22.5137 81.7904 22.5755 81.6016 22.6992C81.4193 22.8164 81.2598 22.9922 81.123 23.2266C80.9928 23.4544 80.8919 23.7507 80.8203 24.1152C80.7552 24.4733 80.7227 24.89 80.7227 25.3652ZM94.4434 20.4336V22.709H90.9961V31H88.2617V20.4336H94.4434ZM95.1758 26.0781V25.3652C95.1758 24.5384 95.2734 23.806 95.4688 23.168C95.6706 22.5299 95.957 21.9961 96.3281 21.5664C96.6992 21.1302 97.1452 20.8014 97.666 20.5801C98.1934 20.3522 98.7826 20.2383 99.4336 20.2383C100.091 20.2383 100.68 20.3522 101.201 20.5801C101.729 20.8014 102.178 21.1302 102.549 21.5664C102.926 21.9961 103.216 22.5299 103.418 23.168C103.62 23.806 103.721 24.5384 103.721 25.3652V26.0781C103.721 26.8984 103.62 27.6276 103.418 28.2656C103.216 28.9036 102.926 29.4408 102.549 29.877C102.178 30.3132 101.732 30.6419 101.211 30.8633C100.69 31.0846 100.104 31.1953 99.4531 31.1953C98.8021 31.1953 98.2129 31.0846 97.6855 30.8633C97.1647 30.6419 96.7155 30.3132 96.3379 29.877C95.9603 29.4408 95.6706 28.9036 95.4688 28.2656C95.2734 27.6276 95.1758 26.8984 95.1758 26.0781ZM97.9102 25.3652V26.0781C97.9102 26.5664 97.9427 26.9896 98.0078 27.3477C98.0794 27.7057 98.1803 28.002 98.3105 28.2363C98.4473 28.4707 98.61 28.6432 98.7988 28.7539C98.9876 28.8646 99.2057 28.9199 99.4531 28.9199C99.7005 28.9199 99.9219 28.8646 100.117 28.7539C100.312 28.6432 100.472 28.4707 100.596 28.2363C100.726 28.002 100.82 27.7057 100.879 27.3477C100.944 26.9896 100.977 26.5664 100.977 26.0781V25.3652C100.977 24.89 100.941 24.4733 100.869 24.1152C100.798 23.7507 100.697 23.4544 100.566 23.2266C100.436 22.9922 100.273 22.8164 100.078 22.6992C99.8893 22.5755 99.6745 22.5137 99.4336 22.5137C99.1927 22.5137 98.9779 22.5755 98.7891 22.6992C98.6068 22.8164 98.4473 22.9922 98.3105 23.2266C98.1803 23.4544 98.0794 23.7507 98.0078 24.1152C97.9427 24.4733 97.9102 24.89 97.9102 25.3652ZM110.029 20.4336V31H107.285V20.4336H110.029ZM112.744 20.4336V22.6895H104.58V20.4336H112.744ZM116.943 26.2344L119.57 20.4336H122.207V31H119.502V25.2188L116.885 31H114.238V20.4336H116.943V26.2344ZM130.176 20.4336V22.709H126.24V20.4336H130.176ZM126.982 20.4336V31H124.238V20.4336H126.982ZM132.207 20.4336V31H129.453V20.4336H132.207Z" fill="#CCCCCC"/>
</svg>
